<?xml version="1.0" encoding="UTF-8"?>
<svg version="1.1" xmlns="http://www.w3.org/2000/svg" width="1024" height="1024">
<path d="M0 0 C337.92 0 675.84 0 1024 0 C1024 337.92 1024 675.84 1024 1024 C686.08 1024 348.16 1024 0 1024 C0 686.08 0 348.16 0 0 Z " fill="#F2F1EC" transform="translate(0,0)"/>
<path d="M0 0 C1.07983154 0.47896729 2.15966309 0.95793457 3.2722168 1.45141602 C6.60261578 2.93706968 9.92764383 4.43395195 13.25 5.9375 C14.26336426 6.39608398 15.27672852 6.85466797 16.32080078 7.32714844 C54.07300205 24.55225098 89.2204549 48.86433088 119.43359375 77.3046875 C121.68589 79.41016277 123.9645241 81.44147942 126.3125 83.4375 C133.91835185 90.028164 141.053875 97.31223651 147.56640625 104.98046875 C148.75467118 106.36172334 149.97418193 107.71639149 151.21484375 109.05078125 C157.88599014 116.22859699 163.74176786 123.9497033 169.61669922 131.77783203 C171.13309266 133.78291669 172.67212194 135.76736106 174.22265625 137.74609375 C199.53845164 170.29375666 218.74801104 208.52981834 231.50732422 247.67529297 C232.22317471 249.85578956 232.9696309 252.0235149 233.72265625 254.19140625 C242.25499149 279.29135517 247.47380652 305.61661383 250.25 331.9375 C250.42354004 333.56727783 250.42354004 333.56727783 250.60058594 335.22998047 C254.88735904 377.36628879 252.59401671 420.74173946 235.25 459.9375 C234.76273438 461.09507812 234.27546875 462.25265625 233.7734375 463.4453125 C230.87884356 470.08061245 227.57228015 476.50794542 224.25 482.9375 C223.91226563 483.59459961 223.57453125 484.25169922 223.2265625 484.92871094 C215.02061596 500.71243562 204.45655807 515.01868804 192.25 527.9375 C191.07770322 529.28679564 189.91084179 530.64083672 188.75 532 C181.60033731 540.16635785 173.79697727 547.26017401 165.25 553.9375 C164.66863281 554.39527832 164.08726562 554.85305664 163.48828125 555.32470703 C148.46908935 567.09682521 132.52168998 576.83988498 115.25 584.9375 C114.06019531 585.50855469 112.87039063 586.07960938 111.64453125 586.66796875 C87.75789321 597.8231338 62.26226794 604.34410978 36.25 607.9375 C35.10539307 608.10741455 33.96078613 608.2773291 32.78149414 608.45239258 C22.10854474 609.93784088 11.58247406 610.3755072 0.8125 610.375 C-0.07074951 610.37673218 -0.95399902 610.37846436 -1.86401367 610.38024902 C-19.53358537 610.36518207 -36.43184176 608.36884269 -53.75 604.9375 C-55.10883301 604.67380615 -55.10883301 604.67380615 -56.49511719 604.40478516 C-93.53302698 597.0227881 -129.02351904 580.53940177 -157.75 555.9375 C-158.79049414 555.07800566 -159.83225579 554.2200444 -160.875 553.36328125 C-197.54746322 523.05051363 -222.81454386 482.12683304 -236.75 436.9375 C-237.1378064 435.70519653 -237.1378064 435.70519653 -237.53344727 434.44799805 C-239.31553827 428.68524896 -240.7537721 422.91402456 -241.9375 417 C-242.1118457 416.13407227 -242.28619141 415.26814453 -242.46582031 414.37597656 C-243.65037874 408.18891892 -244.27072604 402.24407088 -243.75 395.9375 C-242.01558455 399.10469342 -241.06960802 402.20922376 -240.125 405.6875 C-236.32409106 418.20234462 -230.40343714 429.11007358 -221.75 438.9375 C-221.0075 439.948125 -220.265 440.95875 -219.5 442 C-208.34854233 455.10850156 -188.49949003 464.50109536 -171.75 466.9375 C-167.18939978 467.17633172 -162.62877139 467.16844409 -158.0625 467.1875 C-156.84626953 467.208125 -155.63003906 467.22875 -154.37695312 467.25 C-146.66373246 467.28312172 -140.05079 466.42277877 -132.75 463.9375 C-131.57308594 463.54949219 -130.39617187 463.16148437 -129.18359375 462.76171875 C-117.87476616 458.47114661 -109.02141763 452.63511397 -99.75 444.9375 C-98.92757813 444.31875 -98.10515625 443.7 -97.2578125 443.0625 C-71.33089306 421.09327232 -61.94192985 377.49463053 -58.93426514 345.37585449 C-58.40772587 338.40823484 -58.41756512 331.42078384 -58.43432617 324.43701172 C-58.43748131 321.70369304 -58.4139292 318.97146709 -58.38867188 316.23828125 C-58.32582811 299.17136879 -60.24599979 282.508573 -64.9375 266.0625 C-65.39141113 264.43671021 -65.39141113 264.43671021 -65.85449219 262.77807617 C-73.14354022 237.16755455 -82.8552935 213.10702327 -97.75 190.9375 C-98.19875488 190.25574707 -98.64750977 189.57399414 -99.10986328 188.87158203 C-104.766609 180.27848004 -110.667657 172.4300173 -117.75 164.9375 C-118.79571467 163.69088448 -119.83748325 162.44094663 -120.875 161.1875 C-130.20953287 150.5132888 -141.23412352 141.16176307 -152.75 132.9375 C-153.37084473 132.48729492 -153.99168945 132.03708984 -154.63134766 131.57324219 C-172.86813979 118.46288017 -193.23575656 107.48325636 -214.65576172 100.61376953 C-216.63968169 99.97312389 -218.60162705 99.28656312 -220.56640625 98.58984375 C-256.26125778 86.45122127 -298.14674346 86.51975184 -334.75 93.9375 C-335.81025391 94.15180664 -336.87050781 94.36611328 -337.96289062 94.58691406 C-355.88961833 98.33483309 -373.94359377 103.33528777 -390.63183594 110.97265625 C-392.65913634 111.89611074 -394.70102311 112.76569532 -396.7578125 113.62109375 C-425.423102 125.7274601 -450.87796471 142.97986414 -473.75 163.9375 C-474.79253572 164.87548152 -475.83552622 165.81295776 -476.87890625 166.75 C-500.75392 188.3134977 -520.51763936 214.6468818 -534.58007812 243.54882812 C-535.83384275 246.10868479 -537.11220141 248.65550165 -538.390625 251.203125 C-546.81413567 268.18199518 -555.11680365 286.42938891 -558.625 305.1875 C-559.6495332 310.491938 -560.75827593 315.77686815 -561.875 321.0625 C-562.14932861 322.3623584 -562.14932861 322.3623584 -562.42919922 323.68847656 C-562.86903837 325.77157474 -563.30945827 327.85455029 -563.75 329.9375 C-564.08 329.9375 -564.41 329.9375 -564.75 329.9375 C-564.93761814 323.53596915 -564.25833719 317.55709417 -563.1875 311.25 C-563.01331543 310.21907227 -562.83913086 309.18814453 -562.65966797 308.12597656 C-560.33162332 294.91338842 -557.12675776 281.9158763 -553.75 268.9375 C-553.52650879 268.06270996 -553.30301758 267.18791992 -553.07275391 266.28662109 C-537.48026277 206.30313616 -503.60352275 148.63606717 -461.34765625 103.71875 C-459.2547946 101.47797181 -457.23547638 99.20972886 -455.25 96.875 C-448.66172873 89.27190944 -441.37981481 82.14395112 -433.71875 75.62890625 C-431.47218493 73.69882158 -429.30416096 71.69331861 -427.125 69.6875 C-420.92863278 64.09936514 -414.36640256 59.01309648 -407.75 53.9375 C-406.76 53.174375 -405.77 52.41125 -404.75 51.625 C-375.99348924 29.74504616 -344.51026438 10.98303542 -310.75 -2.0625 C-310.06196289 -2.33352539 -309.37392578 -2.60455078 -308.66503906 -2.88378906 C-300.07463313 -6.26222131 -291.39877805 -9.20661427 -282.56640625 -11.88671875 C-279.93179623 -12.69840515 -277.35207321 -13.55090565 -274.75390625 -14.4609375 C-267.99478272 -16.72547745 -261.04999029 -18.33241993 -254.125 -20 C-253.39224854 -20.17647064 -252.65949707 -20.35294128 -251.90454102 -20.53475952 C-169.46736811 -40.28729211 -77.9171707 -34.58362347 0 0 Z " fill="#AB594A" transform="translate(669.75,133.0625)"/>
<path d="M0 0 C1.9043258 0.60076421 3.82504518 1.14895594 5.74707031 1.69042969 C14.0991605 4.04511535 21.44099752 7.65616289 29.11425781 11.66699219 C31.40543315 12.77217802 33.69710117 13.87634302 35.98925781 14.97949219 C65.60090429 29.81851234 92.74602153 52.60869701 113.11425781 78.66699219 C113.87996094 79.60414063 114.64566406 80.54128906 115.43457031 81.50683594 C123.26975774 91.29452185 129.74075033 101.88634059 136.11425781 112.66699219 C136.50887207 113.32924805 136.90348633 113.99150391 137.31005859 114.67382812 C151.99799581 139.63044318 166.60743716 176.09511496 164.11425781 205.66699219 C163.78425781 205.66699219 163.45425781 205.66699219 163.11425781 205.66699219 C162.82035156 204.21292969 162.82035156 204.21292969 162.52050781 202.72949219 C157.77848753 180.87711783 145.87406018 161.12413876 127.08691406 148.46386719 C118.41376284 143.2212265 108.99613108 138.12360741 99.11425781 135.66699219 C98.37304688 135.46460938 97.63183594 135.26222656 96.86816406 135.05371094 C84.18710985 132.14557526 68.66247033 132.20472621 56.11425781 135.66699219 C55.19257813 135.9003125 54.27089844 136.13363281 53.32128906 136.37402344 C40.49558876 140.08449684 29.04685342 147.90079313 19.11425781 156.66699219 C18.50453125 157.19421875 17.89480469 157.72144531 17.26660156 158.26464844 C-2.88752375 176.94968033 -10.83787496 206.87996977 -16.88574219 232.66699219 C-17.10182129 233.5495166 -17.31790039 234.43204102 -17.54052734 235.34130859 C-20.99644465 249.93082446 -21.25242747 264.37307868 -21.26074219 279.29199219 C-21.26273621 280.24415619 -21.26473022 281.19632019 -21.26678467 282.17733765 C-21.26417292 293.19477217 -20.8628125 303.80473528 -18.88574219 314.66699219 C-18.73991699 315.53308105 -18.5940918 316.39916992 -18.44384766 317.29150391 C-8.37798929 375.50866136 23.20423635 431.25126547 71.76733398 465.74731445 C84.7901629 474.83500798 98.56319146 482.33653539 113.11425781 488.66699219 C114.21133057 489.15232422 114.21133057 489.15232422 115.33056641 489.64746094 C143.55653454 502.01594393 173.4570119 506.90614305 204.11425781 506.85449219 C205.27893082 506.85258881 205.27893082 506.85258881 206.46713257 506.85064697 C218.45724158 506.81335366 230.25361034 506.58314279 242.11425781 504.66699219 C243.70125488 504.4163501 243.70125488 504.4163501 245.3203125 504.16064453 C301.84980218 494.87556953 354.64950411 469.22588232 396.50097656 430.09277344 C398.76461977 427.99154409 401.07066675 425.97518692 403.42675781 423.97949219 C407.39479292 420.52477579 410.74937064 416.70209303 414.11425781 412.66699219 C414.87609375 411.76980469 415.63792969 410.87261719 416.42285156 409.94824219 C432.22932762 391.20733453 445.65009214 371.35315659 457.11425781 349.66699219 C457.45183105 349.03567383 457.7894043 348.40435547 458.13720703 347.75390625 C462.07096661 340.36009623 465.24220794 332.94997238 467.93457031 325.02246094 C469.03505533 321.89227343 470.28036005 318.89097375 471.61425781 315.85449219 C477.3199421 302.33255701 480.29518168 288.01435733 483.11425781 273.66699219 C483.44425781 273.66699219 483.77425781 273.66699219 484.11425781 273.66699219 C483.69488217 283.362404 482.36506521 292.30031198 480.05175781 301.72949219 C479.74375244 303.01227051 479.43574707 304.29504883 479.1184082 305.61669922 C474.44976488 324.90873109 469.70978451 344.29135599 462.11425781 362.66699219 C461.53004385 364.11585616 460.94675125 365.5650919 460.36425781 367.01464844 C454.8926273 380.54887874 448.74273237 393.66521533 442.11425781 406.66699219 C441.76878906 407.35067871 441.42332031 408.03436523 441.06738281 408.73876953 C417.98759586 454.26321869 382.49046399 499.26327627 342.11425781 530.66699219 C340.90288707 531.6633106 339.69479635 532.66362471 338.48925781 533.66699219 C329.03571722 541.5162103 319.28735164 548.77766312 309.11425781 555.66699219 C308.44346191 556.12283691 307.77266602 556.57868164 307.08154297 557.04833984 C272.21142833 580.58587897 232.10047008 600.33792128 191.17675781 610.66699219 C190.20657715 610.91553955 189.23639648 611.16408691 188.23681641 611.42016602 C177.58853112 614.11095393 166.87562098 616.4762642 156.11425781 618.66699219 C155.3864209 618.81765137 154.65858398 618.96831055 153.90869141 619.12353516 C128.57956483 624.28914372 102.41991941 625.89925303 76.61425781 625.91699219 C75.27432266 625.9180043 75.27432266 625.9180043 73.90731812 625.91903687 C9.22786405 625.84216324 -55.50729548 609.54178671 -112.82324219 579.60449219 C-113.51885254 579.24178223 -114.21446289 578.87907227 -114.93115234 578.50537109 C-127.10914736 572.01138117 -138.7609275 564.59762035 -150.23046875 556.9375 C-152.14498549 555.6608284 -154.06591812 554.39423164 -155.98730469 553.12792969 C-162.78961039 548.61448469 -169.2621263 543.93430864 -175.50976562 538.66870117 C-177.92709366 536.63215447 -180.39468828 534.67483487 -182.88574219 532.72949219 C-187.54330868 529.01822492 -191.93402004 525.05806728 -196.31152344 521.02246094 C-198.40685385 519.10518592 -200.53120094 517.25135333 -202.69824219 515.41699219 C-211.08765629 508.1195886 -219.08397395 500.05330925 -226.26464844 491.56542969 C-228.16667868 489.33799186 -230.15181938 487.19676247 -232.13574219 485.04199219 C-246.59643137 468.97185025 -259.56580688 451.06726726 -270.88574219 432.66699219 C-271.56378906 431.59578125 -272.24183594 430.52457031 -272.94042969 429.42089844 C-288.89191053 403.90074406 -301.40829935 376.19770245 -310.88574219 347.66699219 C-311.16546875 346.87550781 -311.44519531 346.08402344 -311.73339844 345.26855469 C-317.0863348 329.99952309 -320.56563535 314.05217719 -324.24682617 298.32250977 C-324.76772155 296.15751968 -325.34243005 294.00553449 -325.93261719 291.85839844 C-327.50791831 285.59264829 -328.14499142 279.12991103 -328.94824219 272.72949219 C-329.03634155 272.0319281 -329.12444092 271.33436401 -329.21520996 270.61566162 C-330.50907241 260.30761496 -331.71946887 250.06767484 -331.88574219 239.66699219 C-331.90620605 238.4678418 -331.92666992 237.26869141 -331.94775391 236.03320312 C-332.43413401 204.06904654 -332.43413401 204.06904654 -329.88574219 189.66699219 C-329.76215332 188.92368652 -329.63856445 188.18038086 -329.51123047 187.41455078 C-325.92398111 166.11281186 -319.43951621 146.02735031 -309.88574219 126.66699219 C-309.52754395 125.93287109 -309.1693457 125.19875 -308.80029297 124.44238281 C-293.5392702 93.45936358 -270.48924119 64.52765174 -242.88574219 43.66699219 C-241.60376953 42.69439453 -241.60376953 42.69439453 -240.29589844 41.70214844 C-237.52229935 39.64536791 -234.71135225 37.65164687 -231.88574219 35.66699219 C-230.36207031 34.56291016 -230.36207031 34.56291016 -228.80761719 33.43652344 C-211.9332176 21.49289067 -191.70765354 10.56794333 -171.99072266 4.33349609 C-169.96829505 3.69313106 -167.97774465 2.99497718 -165.98339844 2.27246094 C-146.04634559 -4.80828864 -125.51020573 -8.91971952 -104.48999023 -11.06665039 C-102.80781779 -11.23869971 -101.12679646 -11.42260399 -99.44750977 -11.62084961 C-65.92046758 -15.43035597 -31.91661535 -10.2908071 0 0 Z " fill="#AB594A" transform="translate(433.8857421875,296.3330078125)"/>
<path d="M0 0 C0.99 0.33 1.98 0.66 3 1 C2.65332275 1.71728271 2.30664551 2.43456543 1.94946289 3.17358398 C-12.68338954 33.24129776 -12.68338954 33.24129776 -21.875 65.25 C-22.8995332 70.554438 -24.00827593 75.83936815 -25.125 81.125 C-25.30788574 81.99157227 -25.49077148 82.85814453 -25.67919922 83.75097656 C-26.11903837 85.83407474 -26.55945827 87.91705029 -27 90 C-27.33 90 -27.66 90 -28 90 C-28.18761814 83.59846915 -27.50833719 77.61959417 -26.4375 71.3125 C-26.26331543 70.28157227 -26.08913086 69.25064453 -25.90966797 68.18847656 C-21.90398034 45.45459087 -16.28978868 22.57783229 -8 1 C-5.84622436 3.62198774 -4.59927826 5.64404172 -4 9 C-3.34 9 -2.68 9 -2 9 C-1.7834375 7.88625 -1.7834375 7.88625 -1.5625 6.75 C-1.09812508 4.47972261 -0.58136431 2.24240521 0 0 Z " fill="#A05C4F" transform="translate(133,373)"/>
<path d="M0 0 C0.66 0 1.32 0 2 0 C2.19617816 2.54126172 2.38217248 5.08260459 2.5625 7.625 C2.61857422 8.33785156 2.67464844 9.05070313 2.73242188 9.78515625 C3.1216051 15.44128573 3.25056966 20.12414551 0 25 C-0.63312244 27.11712534 -0.63312244 27.11712534 -1.0703125 29.44921875 C-1.33134766 30.72055664 -1.33134766 30.72055664 -1.59765625 32.01757812 C-1.77167969 32.89865234 -1.94570313 33.77972656 -2.125 34.6875 C-2.30675781 35.58017578 -2.48851562 36.47285156 -2.67578125 37.39257812 C-3.12311409 39.59392657 -3.5642764 41.79632949 -4 44 C-6.046875 40.28125 -6.046875 40.28125 -5.625 37.75 C-5.41875 37.1725 -5.2125 36.595 -5 36 C-7.97 38.475 -7.97 38.475 -11 41 C-10.608125 39.88625 -10.21625 38.7725 -9.8125 37.625 C-5.71833638 25.30370189 -2.51775132 12.73204328 0 0 Z " fill="#F3E5DC" transform="translate(917,549)"/>
<path d="M0 0 C1.73441545 3.16719342 2.68039198 6.27172376 3.625 9.75 C5.51311314 16.11337369 8.21265999 21.78233189 11.35791016 27.61816406 C13.20464363 31.10207261 14 32.96658003 14 37 C12.35 36.34 10.7 35.68 9 35 C9.144375 35.73605469 9.28875 36.47210937 9.4375 37.23046875 C9.623125 38.20628906 9.80875 39.18210937 10 40.1875 C10.185625 41.15042969 10.37125 42.11335937 10.5625 43.10546875 C10.96877612 45.7934206 11.07933572 48.28771019 11 51 C2.55654965 38.33482448 -1.23342605 14.93815988 0 0 Z " fill="#9E6053" transform="translate(426,529)"/>
<path d="M0 0 C0.66 0 1.32 0 2 0 C2.01030746 0.58659897 2.02061493 1.17319794 2.03123474 1.77757263 C2.13907194 7.8603787 2.25368756 13.94302974 2.37231445 20.02563477 C2.41573665 22.29838836 2.45740616 24.57117613 2.49731445 26.84399414 C2.55484119 30.10313232 2.61858552 33.36209731 2.68359375 36.62109375 C2.70030624 37.64400009 2.71701874 38.66690643 2.73423767 39.72080994 C2.75418289 40.66170975 2.77412811 41.60260956 2.79467773 42.57202148 C2.81022202 43.40475082 2.8257663 44.23748016 2.84178162 45.09544373 C2.79428614 47.00966585 2.79428614 47.00966585 4 48 C4.29964406 50.06778858 4.53954611 52.1442949 4.75390625 54.22265625 C4.95209961 56.11274414 4.95209961 56.11274414 5.15429688 58.04101562 C5.2904591 59.38150082 5.42652556 60.72199574 5.5625 62.0625 C5.70207106 63.40694293 5.84203986 64.75134463 5.98242188 66.09570312 C6.32554138 69.3967494 6.66454667 72.69816731 7 76 C6.34 76 5.68 76 5 76 C0.75868178 50.44303664 -0.14854914 25.83155331 0 0 Z " fill="#9F6459" transform="translate(102,503)"/>
<path d="M0 0 C2.06077565 3.09116347 2.65556936 5.14940977 3.47265625 8.734375 C3.86227539 10.43207031 3.86227539 10.43207031 4.25976562 12.1640625 C4.52466797 13.34742188 4.78957031 14.53078125 5.0625 15.75 C5.33126953 16.91789062 5.60003906 18.08578125 5.87695312 19.2890625 C7.60552833 26.89306913 9.15917798 34.10658391 9.0625 41.9375 C9.05347656 42.89527344 9.04445313 43.85304688 9.03515625 44.83984375 C9.02355469 45.55269531 9.01195312 46.26554687 9 47 C8.67 47 8.34 47 8 47 C7.78085937 45.98421875 7.56171875 44.9684375 7.3359375 43.921875 C5.48769117 35.76773015 3.23847488 28.64614 -0.828125 21.2578125 C-2 19 -2 19 -2 17 C-0.68 17.33 0.64 17.66 2 18 C1.855625 17.28714844 1.71125 16.57429688 1.5625 15.83984375 C0.5202768 10.46226157 -0.2433952 5.47639208 0 0 Z " fill="#A46E61" transform="translate(589,455)"/>
<path d="M0 0 C0.33 0.66 0.66 1.32 1 2 C1.99 2.33 2.98 2.66 4 3 C3.74307373 3.83023682 3.74307373 3.83023682 3.48095703 4.67724609 C2.69056109 7.24162996 1.90775996 9.80827548 1.125 12.375 C0.85558594 13.24511719 0.58617188 14.11523438 0.30859375 15.01171875 C-1.49897064 20.96345515 -2.84918029 26.89143459 -4 33 C-4.35228041 34.71186771 -4.70906372 36.42281488 -5.0703125 38.1328125 C-5.24433594 38.9578125 -5.41835937 39.7828125 -5.59765625 40.6328125 C-5.77167969 41.45523438 -5.94570312 42.27765625 -6.125 43.125 C-6.30675781 43.98609375 -6.48851563 44.8471875 -6.67578125 45.734375 C-7.1167166 47.82301613 -7.5582892 49.91152272 -8 52 C-8.33 52 -8.66 52 -9 52 C-9.2109945 45.40446808 -8.42577397 39.24514643 -7.3125 32.75 C-7.13750977 31.71037109 -6.96251953 30.67074219 -6.78222656 29.59960938 C-5.03784668 19.59606264 -2.64485437 9.79896864 0 0 Z " fill="#8A5B50" transform="translate(114,411)"/>
<path d="M0 0 C0.33 0 0.66 0 1 0 C0.60437142 9.49878343 -0.63203659 18.51995842 -2.79150391 27.76367188 C-3.25827214 29.78583711 -3.68977033 31.8137644 -4.12109375 33.84375 C-4.41628906 35.12765625 -4.71148438 36.4115625 -5.015625 37.734375 C-5.40669434 39.47025879 -5.40669434 39.47025879 -5.80566406 41.24121094 C-7 44 -7 44 -9.62402344 45.39160156 C-10.4080957 45.59237305 -11.19216797 45.79314453 -12 46 C-11.21011512 39.8388979 -9.18317327 34.2268362 -7.0546875 28.421875 C-3.76315998 19.14339584 -1.89553878 9.63901635 0 0 Z " fill="#966C63" transform="translate(917,570)"/>
<path d="M0 0 C0.66 0.66 1.32 1.32 2 2 C1.77439599 5.40984351 0.83281209 8.69227741 0 12 C-0.19722656 12.85464844 -0.39445313 13.70929687 -0.59765625 14.58984375 C-1.22412481 16.90440126 -1.83108963 18.90512925 -3 21 C-6.1875 22.5625 -6.1875 22.5625 -9 23 C-9 18.65816543 -8.05652707 15.9296117 -6.5625 11.875 C-6.33240234 11.24207031 -6.10230469 10.60914063 -5.86523438 9.95703125 C-4.99664297 7.58539907 -4.13041603 5.26083206 -3 3 C-2.01 3 -1.02 3 0 3 C0 2.01 0 1.02 0 0 Z " fill="#9F594D" transform="translate(907,613)"/>
<path d="M0 0 C0 0.66 0 1.32 0 2 C1.28583984 1.94779297 1.28583984 1.94779297 2.59765625 1.89453125 C3.74105469 1.86746094 4.88445313 1.84039063 6.0625 1.8125 C7.18785156 1.77769531 8.31320312 1.74289062 9.47265625 1.70703125 C13 2 13 2 16.14453125 3.48632812 C20.47701769 5.41213562 24.52773946 5.47505764 29.21484375 5.51171875 C30.07058487 5.52966995 30.92632599 5.54762115 31.80799866 5.56611633 C34.51778361 5.61992031 37.2273955 5.65401813 39.9375 5.6875 C41.78452914 5.72069956 43.63153552 5.75519164 45.47851562 5.79101562 C49.98555158 5.87562922 54.49253888 5.94258213 59 6 C59 6.33 59 6.66 59 7 C35.61518572 7.44719415 13.06179912 7.41115934 -10 3 C-6.84916414 -0.15083586 -4.41812253 0 0 0 Z " fill="#AD786B" transform="translate(631,736)"/>
<path d="M0 0 C1.96412417 0.14998884 3.92831677 0.29908422 5.89257812 0.44726562 C10.65840315 0.80872175 15.42314069 1.18223101 20.1875 1.5625 C20.1875 1.8925 20.1875 2.2225 20.1875 2.5625 C14.5681998 2.5874559 8.94893278 2.60547966 3.32958984 2.61743164 C1.4230086 2.62242101 -0.48356891 2.62921487 -2.39013672 2.63793945 C-26.85015859 2.7469642 -26.85015859 2.7469642 -32.8125 1.5625 C-33.4725 0.9025 -34.1325 0.2425 -34.8125 -0.4375 C-23.10546961 -1.95540931 -11.7120056 -0.93779228 0 0 Z " fill="#A96E61" transform="translate(509.8125,919.4375)"/>
<path d="M0 0 C0.88068649 0.02017181 1.76137299 0.04034363 2.66874695 0.06112671 C3.61570938 0.09332306 4.56267181 0.12551941 5.53833008 0.15869141 C6.99690178 0.19623032 6.99690178 0.19623032 8.48493958 0.23452759 C11.59293371 0.31674759 14.70029433 0.41332987 17.80786133 0.51025391 C19.91395518 0.56849139 22.02007508 0.62579471 24.1262207 0.68212891 C29.2912991 0.82232956 34.45585492 0.97541292 39.62036133 1.13525391 C39.62036133 1.46525391 39.62036133 1.79525391 39.62036133 2.13525391 C38.29367432 2.15712769 38.29367432 2.15712769 36.94018555 2.17944336 C20.76239208 2.47631248 4.86496124 2.92014315 -11.14135742 5.51416016 C-14.58656646 6.06846547 -17.88191878 6.26521765 -21.37963867 6.13525391 C-18.7755387 3.53115394 -17.05596105 3.62585767 -13.44213867 3.13525391 C-8.46722969 2.45823106 -4.92256938 -0.14104783 0 0 Z " fill="#A56D61" transform="translate(356.379638671875,219.86474609375)"/>
<path d="M0 0 C2.34674456 3.52011684 2.34333106 5.6422148 2.55859375 9.74609375 C2.82130088 12.0952163 2.82130088 12.0952163 4.546875 13.75 C6.80601238 17.24801917 6.1498401 20.5246412 5.8125 24.5625 C5.76802734 25.33013672 5.72355469 26.09777344 5.67773438 26.88867188 C5.41086985 30.66760532 5.13594585 32.79608123 3 36 C1.71017741 33.42035482 1.68494488 31.27848897 1.46484375 28.3984375 C1.37783203 27.26792969 1.29082031 26.13742187 1.20117188 24.97265625 C1.11416016 23.78542969 1.02714844 22.59820312 0.9375 21.375 C0.84662109 20.21097656 0.75574219 19.04695313 0.66210938 17.84765625 C0.21270424 11.88036695 -0.11081329 5.98391783 0 0 Z " fill="#F6E7DD" transform="translate(919,457)"/>
<path d="M0 0 C0.33 0.66 0.66 1.32 1 2 C1.66 2.33 2.32 2.66 3 3 C2.73445313 3.85722656 2.46890625 4.71445312 2.1953125 5.59765625 C0.40793968 11.3837865 -1.37213671 17.16682322 -3 23 C-3.66 23 -4.32 23 -5 23 C-6.06630801 17.56959697 -5.79974414 13.4274012 -4.5625 8.0625 C-4.41490234 7.37865234 -4.26730469 6.69480469 -4.11523438 5.99023438 C-3.75412706 4.32448128 -3.37857288 2.66187077 -3 1 C-2.34 1.33 -1.68 1.66 -1 2 C-0.67 1.34 -0.34 0.68 0 0 Z " fill="#F8E8DF" transform="translate(112,443)"/>
<path d="M0 0 C8.95788336 0.42516959 17.32210784 1.74175965 26 4 C25.34 4.66 24.68 5.32 24 6 C22.65403845 5.72201368 21.32171354 5.37677873 20 5 C18.19418245 4.92008896 16.38568191 4.89230177 14.578125 4.90234375 C13.55332031 4.90556641 12.52851562 4.90878906 11.47265625 4.91210938 C9.87744141 4.92467773 9.87744141 4.92467773 8.25 4.9375 C7.17105469 4.94201172 6.09210937 4.94652344 4.98046875 4.95117188 C2.32025617 4.96294273 -0.33984365 4.97938601 -3 5 C-3 4.34 -3 3.68 -3 3 C-1.68 3 -0.36 3 1 3 C0.67 2.01 0.34 1.02 0 0 Z " fill="#A25B4D" transform="translate(582,109)"/>
<path d="M0 0 C4.42910272 -0.04973511 8.85805397 -0.08587704 13.28735352 -0.10986328 C14.79161413 -0.11987124 16.29585553 -0.1334818 17.80004883 -0.15087891 C19.97221643 -0.17535809 22.14412504 -0.18653523 24.31640625 -0.1953125 C25.62037354 -0.20578613 26.92434082 -0.21625977 28.26782227 -0.22705078 C32.21298432 0.01295711 35.26462372 0.77812819 39 2 C39 2.33 39 2.66 39 3 C35.7 3 32.4 3 29 3 C29 2.34 29 1.68 29 1 C27.35 1.66 25.7 2.32 24 3 C24 2.34 24 1.68 24 1 C22.700625 1.144375 21.40125 1.28875 20.0625 1.4375 C19.33160156 1.51871094 18.60070312 1.59992188 17.84765625 1.68359375 C15.98859771 1.81886614 15.98859771 1.81886614 15 3 C12.64686445 3.07271741 10.29166332 3.08370868 7.9375 3.0625 C6.64714844 3.05347656 5.35679687 3.04445313 4.02734375 3.03515625 C3.02832031 3.02355469 2.02929688 3.01195313 1 3 C0.67 2.01 0.34 1.02 0 0 Z " fill="#A05443" transform="translate(501,103)"/>
<path d="M0 0 C5.33986263 1.71278613 10.44102174 2.52099507 16 3 C16 3.66 16 4.32 16 5 C10.16386386 4.55556478 4.40311641 3.94307868 -1.375 3 C-7.89718612 1.9508128 -14.40988362 1.40985994 -21 1 C-13.80372853 -2.66518174 -7.65849888 -2.87193708 0 0 Z " fill="#FAEDE3" transform="translate(391,284)"/>
<path d="M0 0 C0.99 0.33 1.98 0.66 3 1 C3.02500541 5.08934581 3.04300222 9.17866105 3.05493164 13.26806641 C3.05991293 14.65479306 3.06670039 16.04151459 3.07543945 17.42822266 C3.12398542 25.33835992 3.03835551 33.14502199 2 41 C1.67 41 1.34 41 1 41 C-0.14069132 27.33207359 -0.10657507 13.70719411 0 0 Z " fill="#AE7465" transform="translate(919,490)"/>
<path d="M0 0 C0 0.33 0 0.66 0 1 C-4.22282518 1.80395025 -8.19613764 2.11811363 -12.4921875 2.09765625 C-13.69101562 2.09443359 -14.88984375 2.09121094 -16.125 2.08789062 C-17.98125 2.07532227 -17.98125 2.07532227 -19.875 2.0625 C-21.13570312 2.05798828 -22.39640625 2.05347656 -23.6953125 2.04882812 C-26.79692386 2.0370796 -29.89843725 2.02065167 -33 2 C-33 1.67 -33 1.34 -33 1 C-22.21314158 -1.84265445 -10.9750679 -1.79184782 0 0 Z " fill="#9E5B4D" transform="translate(551,919)"/>
<path d="M0 0 C0.66 0.99 1.32 1.98 2 3 C1.04609371 4.90781257 0.0919655 6.8155145 -0.86328125 8.72265625 C-1.57324745 10.1450284 -2.2795966 11.56921857 -2.98046875 12.99609375 C-5.49190168 18.09071483 -8.20683978 23.05473272 -11 28 C-11.66 28 -12.32 28 -13 28 C-11.74577315 24.01207054 -10.28484419 20.33050596 -8.3984375 16.6015625 C-7.90859375 15.62832031 -7.41875 14.65507812 -6.9140625 13.65234375 C-6.40617188 12.65332031 -5.89828125 11.65429688 -5.375 10.625 C-4.859375 9.60277344 -4.34375 8.58054687 -3.8125 7.52734375 C-2.54528127 5.01637331 -1.27435444 2.50735439 0 0 Z " fill="#A2665A" transform="translate(151,316)"/>
<path d="M0 0 C0.33 0.99 0.66 1.98 1 3 C-1.39731299 5.37458753 -3.82065968 7.7207237 -6.25 10.0625 C-7.27287109 11.07666992 -7.27287109 11.07666992 -8.31640625 12.11132812 C-8.98027344 12.74619141 -9.64414063 13.38105469 -10.328125 14.03515625 C-11.23933105 14.92279663 -11.23933105 14.92279663 -12.16894531 15.82836914 C-14 17 -14 17 -16.22949219 16.68530273 C-16.81375977 16.45915283 -17.39802734 16.23300293 -18 16 C-15.75297964 13.89263258 -13.50186569 11.78968811 -11.25 9.6875 C-10.29867187 8.79514648 -10.29867187 8.79514648 -9.328125 7.88476562 C-6.32579774 5.08572094 -3.37142346 2.35829368 0 0 Z " fill="#A06052" transform="translate(252,195)"/>
<path d="M0 0 C0.33 0.99 0.66 1.98 1 3 C-0.8125 5 -0.8125 5 -3 7 C-3.99 7 -4.98 7 -6 7 C-6.37318359 7.89332031 -6.37318359 7.89332031 -6.75390625 8.8046875 C-8.18180495 11.32029586 -9.59207398 12.45655914 -11.9375 14.125 C-12.62714844 14.62257813 -13.31679688 15.12015625 -14.02734375 15.6328125 C-15.6726313 16.7731108 -17.33439173 17.88959449 -19 19 C-19.99 18.67 -20.98 18.34 -22 18 C-21.0821875 17.28714844 -20.164375 16.57429687 -19.21875 15.83984375 C-12.65842778 10.7261521 -6.15630273 5.60185311 0 0 Z " fill="#A46758" transform="translate(828,729)"/>
<path d="M0 0 C0.66 0 1.32 0 2 0 C-0.37262999 7.11788998 -4.82986053 12.79905398 -11 17 C-13.375 16.8125 -13.375 16.8125 -15 16 C-14.27296875 15.45730469 -13.5459375 14.91460938 -12.796875 14.35546875 C-9.86811352 11.88892801 -7.63150872 9.30536917 -5.25 6.3125 C-1 1 -1 1 0 0 Z " fill="#A96A5C" transform="translate(585,562)"/>
<path d="M0 0 C5.80238024 -0.07401964 11.60448722 -0.12853989 17.40722656 -0.16479492 C19.38221013 -0.17990462 21.35716004 -0.20039328 23.33203125 -0.22631836 C26.16675106 -0.26260619 29.00102826 -0.27970416 31.8359375 -0.29296875 C32.72243988 -0.30845261 33.60894226 -0.32393646 34.52230835 -0.33988953 C35.34300812 -0.34011612 36.16370789 -0.34034271 37.00927734 -0.34057617 C37.73319672 -0.34723801 38.45711609 -0.35389984 39.20297241 -0.36076355 C41 0 41 0 43 3 C41.33343119 3.02757191 39.66672149 3.04664803 38 3.0625 C37.071875 3.07410156 36.14375 3.08570313 35.1875 3.09765625 C32.19767961 3.00605636 29.31685012 2.65342218 26.35546875 2.25610352 C21.42253594 1.71975956 16.45631414 1.61832247 11.5 1.4375 C10.39140625 1.39431641 9.2828125 1.35113281 8.140625 1.30664062 C5.42718494 1.20137786 2.71366583 1.09924154 0 1 C0 0.67 0 0.34 0 0 Z " fill="#9B5D4F" transform="translate(372,220)"/>
<path d="M0 0 C-4.06777544 1.76324714 -8.14272353 3.50830994 -12.2253418 5.23681641 C-13.61353205 5.82755639 -14.99962756 6.42324398 -16.38354492 7.02392578 C-18.37150609 7.88577924 -20.366285 8.72964578 -22.36328125 9.5703125 C-24.16212769 10.34012451 -24.16212769 10.34012451 -25.99731445 11.12548828 C-26.98820068 11.41407715 -27.97908691 11.70266602 -29 12 C-29.99 11.34 -30.98 10.68 -32 10 C-28.14243493 7.84694043 -25.44870215 6.60746746 -21 7 C-21 6.34 -21 5.68 -21 5 C-19.2984375 4.62875 -19.2984375 4.62875 -17.5625 4.25 C-13.4428356 3.24752394 -9.84784432 1.62579126 -6.078125 -0.29296875 C-3.60226005 -1.1353213 -2.45980633 -0.71578437 0 0 Z " fill="#9E6356" transform="translate(687,884)"/>
<path d="M0 0 C0.99 0.33 1.98 0.66 3 1 C-5.66666667 9.66666667 -14.33333333 18.33333333 -23 27 C-23.66 26.67 -24.32 26.34 -25 26 C-24.31373535 25.31897217 -23.6274707 24.63794434 -22.92041016 23.9362793 C-20.37213023 21.40611537 -17.82717421 18.8726304 -15.28320312 16.33813477 C-14.18221807 15.24217482 -13.08033668 14.14711456 -11.97753906 13.05297852 C-10.39150617 11.47909092 -8.80873713 9.90198372 -7.2265625 8.32421875 C-6.73378815 7.83660568 -6.24101379 7.34899261 -5.73330688 6.84660339 C-3.53593316 4.64959022 -1.73232241 2.59848362 0 0 Z " fill="#F3DFD7" transform="translate(815,788)"/>
<path d="M0 0 C1.93552734 0.00676758 1.93552734 0.00676758 3.91015625 0.01367188 C7.06515375 0.02535705 10.22005137 0.04173956 13.375 0.0625 C13.375 0.3925 13.375 0.7225 13.375 1.0625 C12.12203125 1.12308594 10.8690625 1.18367188 9.578125 1.24609375 C7.92707276 1.33052256 6.27603165 1.41516939 4.625 1.5 C3.8 1.53931641 2.975 1.57863281 2.125 1.61914062 C1.32578125 1.66103516 0.5265625 1.70292969 -0.296875 1.74609375 C-1.0300293 1.78275146 -1.76318359 1.81940918 -2.51855469 1.85717773 C-4.63110934 2.00757297 -4.63110934 2.00757297 -6.65234375 2.58984375 C-10.02500849 3.39794758 -13.44762291 2.88841149 -16.875 2.625 C-17.62007813 2.57279297 -18.36515625 2.52058594 -19.1328125 2.46679688 C-20.96394861 2.3376783 -22.79453813 2.20084886 -24.625 2.0625 C-24.625 1.7325 -24.625 1.4025 -24.625 1.0625 C-16.40742924 -0.00096444 -8.27639345 -0.05540325 0 0 Z M-16.625 3.0625 C-14.645 3.0625 -12.665 3.0625 -10.625 3.0625 C-10.625 3.3925 -10.625 3.7225 -10.625 4.0625 C-12.605 4.0625 -14.585 4.0625 -16.625 4.0625 C-16.625 3.7325 -16.625 3.4025 -16.625 3.0625 Z " fill="#BA8476" transform="translate(356.625,283.9375)"/>
<path d="M0 0 C0.99 0.99 1.98 1.98 3 3 C2.566875 4.216875 2.13375 5.43375 1.6875 6.6875 C-0.05179278 11.83154043 -1.16511912 17.06024251 -2.25390625 22.375 C-2.50011719 23.24125 -2.74632813 24.1075 -3 25 C-3.66 25.33 -4.32 25.66 -5 26 C-4.56901343 17.03547936 -2.30110566 8.62647053 0 0 Z " fill="#A86E62" transform="translate(109,464)"/>
<path d="M0 0 C4.95 0 9.9 0 15 0 C15 0.66 15 1.32 15 2 C16.32 2 17.64 2 19 2 C19 2.66 19 3.32 19 4 C12.88514973 4.09706112 7.06696699 3.77040851 1 3 C0.67 2.01 0.34 1.02 0 0 Z " fill="#F7E5DC" transform="translate(546,101)"/>
<path d="M0 0 C0.99 0 1.98 0 3 0 C3.391875 0.99 3.78375 1.98 4.1875 3 C6.48711918 8.38767923 9.7613642 13.1420463 13 18 C12.625 20.1875 12.625 20.1875 12 22 C8.24132215 17.77572017 6.0563392 13.28280123 3.75 8.1875 C3.20472656 7.00510742 3.20472656 7.00510742 2.6484375 5.79882812 C1.75942269 3.86873018 0.87884913 1.93474795 0 0 Z " fill="#A4685E" transform="translate(143,692)"/>
<path d="M0 0 C0.66 0 1.32 0 2 0 C2.19617816 2.54126172 2.38217248 5.08260459 2.5625 7.625 C2.61857422 8.33785156 2.67464844 9.05070313 2.73242188 9.78515625 C3.02495798 14.03668104 2.89547939 17.79456347 2 22 C1.34 21.67 0.68 21.34 0 21 C0.495 16.545 0.495 16.545 1 12 C0.34 12 -0.32 12 -1 12 C-0.67 8.04 -0.34 4.08 0 0 Z " fill="#E4D5CD" transform="translate(917,549)"/>
<path d="M0 0 C0.66 0 1.32 0 2 0 C3.51537186 7.7527507 4.27990605 15.10042938 4 23 C3.67 23 3.34 23 3 23 C2.29590698 20.48279191 1.61163944 17.96274181 0.9375 15.4375 C0.73833984 14.73302734 0.53917969 14.02855469 0.33398438 13.30273438 C-0.93819855 8.45951166 -1.02555455 4.90847177 0 0 Z " fill="#A1766D" transform="translate(594,479)"/>
<path d="M0 0 C2.475 0.99 2.475 0.99 5 2 C1.30344725 4.11503791 -2.65723434 5.08053239 -6.75 6.125 C-7.44738281 6.30675781 -8.14476562 6.48851562 -8.86328125 6.67578125 C-10.57449065 7.12116452 -12.28710983 7.56112516 -14 8 C-13.67 6.35 -13.34 4.7 -13 3 C-11.84371094 2.92652344 -11.84371094 2.92652344 -10.6640625 2.8515625 C-9.66117187 2.77679688 -8.65828125 2.70203125 -7.625 2.625 C-6.62726563 2.55539063 -5.62953125 2.48578125 -4.6015625 2.4140625 C-1.84491121 2.23636036 -1.84491121 2.23636036 0 0 Z " fill="#A36355" transform="translate(320,226)"/>
<path d="M0 0 C3.33426756 0.08181974 6.66682969 0.19457074 10 0.3125 C10.93457031 0.33505859 11.86914062 0.35761719 12.83203125 0.38085938 C18.84860679 0.61226613 23.48191024 1.57282137 29 4 C25.47015434 5.1852306 22.78324223 4.83595405 19.140625 4.22265625 C18.02558594 4.03896484 16.91054688 3.85527344 15.76171875 3.66601562 C14.02341797 3.36727539 14.02341797 3.36727539 12.25 3.0625 C10.48849609 2.76956055 10.48849609 2.76956055 8.69140625 2.47070312 C5.79298975 1.98763371 2.89603033 1.49714131 0 1 C0 0.67 0 0.34 0 0 Z " fill="#A77267" transform="translate(433,914)"/>
<path d="M0 0 C0.33 0 0.66 0 1 0 C0.60209053 9.15191777 -0.08423528 18.25270585 -3 27 C-3.66 27.33 -4.32 27.66 -5 28 C-4.37922374 21.52432348 -3.33183542 15.28837757 -1.9375 8.9375 C-1.75123047 8.07189453 -1.56496094 7.20628906 -1.37304688 6.31445312 C-0.91933733 4.20877549 -0.46023996 2.10425993 0 0 Z " fill="#8C6C64" transform="translate(917,570)"/>
<path d="M0 0 C0.99 0.66 1.98 1.32 3 2 C2.16922598 7.33444368 1.06228891 12.59683861 -0.0625 17.875 C-0.24876953 18.75414062 -0.43503906 19.63328125 -0.62695312 20.5390625 C-1.08348476 22.69295534 -1.54119679 24.84659009 -2 27 C-2.33 27 -2.66 27 -3 27 C-3.17159443 20.82260045 -2.53731344 15.08370312 -1.5 9 C-1.35691406 8.12988281 -1.21382813 7.25976562 -1.06640625 6.36328125 C-0.71661973 4.24124305 -0.3591135 2.12047972 0 0 Z " fill="#AB8F87" transform="translate(108,436)"/>
<path d="M0 0 C1.82482981 3.38422984 3.06031353 6.84715987 4.25 10.5 C4.62640625 11.6240625 5.0028125 12.748125 5.390625 13.90625 C6 17 6 17 5.109375 19.40625 C4.74328125 19.9321875 4.3771875 20.458125 4 21 C2 20 2 20 1.3671875 18.3203125 C-0.01479115 12.15624902 -0.21206472 6.30303475 0 0 Z " fill="#A57B6F" transform="translate(426,529)"/>
<path d="M0 0 C1.02480469 0.00322266 2.04960937 0.00644531 3.10546875 0.00976562 C4.16894531 0.01814453 5.23242188 0.02652344 6.328125 0.03515625 C7.40707031 0.03966797 8.48601562 0.04417969 9.59765625 0.04882812 C12.25786883 0.06059898 14.91796865 0.07704226 17.578125 0.09765625 C17.578125 0.42765625 17.578125 0.75765625 17.578125 1.09765625 C13.45457965 1.48999357 9.32925448 1.858586 5.203125 2.22265625 C3.4396875 2.39087891 3.4396875 2.39087891 1.640625 2.5625 C-0.04160156 2.70751953 -0.04160156 2.70751953 -1.7578125 2.85546875 C-2.79470215 2.94973145 -3.8315918 3.04399414 -4.89990234 3.14111328 C-7.421875 3.09765625 -7.421875 3.09765625 -9.421875 1.09765625 C-6.21405414 0.14389058 -3.34000104 -0.01855556 0 0 Z " fill="#9A5D4E" transform="translate(483.421875,102.90234375)"/>
<path d="M0 0 C0.33 0 0.66 0 1 0 C1.29883729 7.47093223 0.15925507 14.63044989 -1 22 C-1.66 21.67 -2.32 21.34 -3 21 C-3.18181818 10.5959596 -3.18181818 10.5959596 -2 6 C-1.835 5.0925 -1.67 4.185 -1.5 3.25 C-1 1 -1 1 0 0 Z " fill="#A05E52" transform="translate(414,531)"/>
<path d="M0 0 C5.28 1.98 10.56 3.96 16 6 C16 6.33 16 6.66 16 7 C14.20866022 7.05391993 12.41686101 7.09275571 10.625 7.125 C9.62726562 7.14820313 8.62953125 7.17140625 7.6015625 7.1953125 C5 7 5 7 3 5 C3 4.67 3 4.34 3 4 C2.01 4 1.02 4 0 4 C0 2.68 0 1.36 0 0 Z " fill="#A15F50" transform="translate(661,130)"/>
<path d="M0 0 C0.66 0.33 1.32 0.66 2 1 C-2.39785521 4.86478185 -6.97281595 8 -13 8 C-13.66 9.32 -14.32 10.64 -15 12 C-16.65 12 -18.3 12 -20 12 C-20 11.34 -20 10.68 -20 10 C-16.71482943 8.29962416 -13.42091861 6.61693465 -10.125 4.9375 C-9.18785156 4.45216797 -8.25070312 3.96683594 -7.28515625 3.46679688 C-6.38925781 3.01240234 -5.49335937 2.55800781 -4.5703125 2.08984375 C-3.32918701 1.45357056 -3.32918701 1.45357056 -2.06298828 0.80444336 C-1.38220215 0.53897705 -0.70141602 0.27351074 0 0 Z " fill="#F7E5DD" transform="translate(707,873)"/>
<path d="M0 0 C5.61 0 11.22 0 17 0 C17 0.66 17 1.32 17 2 C17.66 2.33 18.32 2.66 19 3 C16.58265458 3.08117951 14.16805051 3.14056926 11.75 3.1875 C11.06808594 3.21263672 10.38617188 3.23777344 9.68359375 3.26367188 C4.97657186 3.33222074 3.9791154 2.98433655 0 0 Z " fill="#995143" transform="translate(352,285)"/>
<path d="M0 0 C13.365 0.495 13.365 0.495 27 1 C27 1.33 27 1.66 27 2 C23.81360234 2.22821192 20.62602344 2.42892029 17.4375 2.625 C16.54224609 2.68945312 15.64699219 2.75390625 14.72460938 2.8203125 C9.30685566 3.13783653 5.11790408 2.83935647 0 1 C0 0.67 0 0.34 0 0 Z " fill="#A26355" transform="translate(460,917)"/>
<path d="M0 0 C3.63 0 7.26 0 11 0 C7.31819464 2.45453691 3.58981383 3.72299097 -0.5625 5.1875 C-1.34302734 5.47302734 -2.12355469 5.75855469 -2.92773438 6.05273438 C-4.93111596 6.76316564 -6.9643151 7.38825059 -9 8 C-9.66 7.67 -10.32 7.34 -11 7 C-10.67 6.34 -10.34 5.68 -10 5 C-7.71484375 4.3671875 -7.71484375 4.3671875 -4.9375 3.875 C-4.01839844 3.70742188 -3.09929688 3.53984375 -2.15234375 3.3671875 C-1.44207031 3.24601563 -0.73179687 3.12484375 0 3 C0 2.01 0 1.02 0 0 Z " fill="#9F6254" transform="translate(645,896)"/>
<path d="M0 0 C2 2 2 2 2.23046875 3.8828125 C2.13255111 8.99233325 1.89957947 13.96235498 1 19 C0.34 19.33 -0.32 19.66 -1 20 C-1.02722517 17.79173622 -1.04649729 15.58337362 -1.0625 13.375 C-1.07410156 12.14523437 -1.08570313 10.91546875 -1.09765625 9.6484375 C-1.00863924 6.32276209 -0.63686087 3.25952412 0 0 Z " fill="#FAF8F0" transform="translate(608,423)"/>
<path d="M0 0 C5.23435005 4.27293882 9.67106815 8.81580806 14 14 C13.01 14.33 12.02 14.66 11 15 C10.443125 14.030625 9.88625 13.06125 9.3125 12.0625 C7.31964195 8.81008721 7.31964195 8.81008721 4.25 8.125 C3.5075 8.08375 2.765 8.0425 2 8 C2.33 7.01 2.66 6.02 3 5 C2.34 5 1.68 5 1 5 C0.67 3.35 0.34 1.7 0 0 Z " fill="#9E6051" transform="translate(528,355)"/>
<path d="M0 0 C1.8828125 -0.328125 1.8828125 -0.328125 4.125 -0.25 C4.92035156 -0.22421875 5.71570313 -0.1984375 6.53515625 -0.171875 C10.05304196 0.07342923 13.51012942 0.49238246 17 1 C17 1.66 17 2.32 17 3 C10.73 3 4.46 3 -2 3 C-1.34 2.01 -0.68 1.02 0 0 Z " fill="#A5695B" transform="translate(374,285)"/>
<path d="M0 0 C2.25 1.01953125 2.25 1.01953125 4 2 C1.89679937 2.50404808 -0.20759791 3.00310508 -2.3125 3.5 C-4.07013672 3.91765625 -4.07013672 3.91765625 -5.86328125 4.34375 C-9 5 -9 5 -12 5 C-12 3 -12 3 -10.5 1.375 C-7.03682379 -0.52974691 -3.88045289 -0.58358374 0 0 Z " fill="#F7E8E1" transform="translate(429,108)"/>
<path d="M0 0 C0 3 0 3 -2.046875 5.078125 C-3.38492188 6.15320313 -3.38492188 6.15320313 -4.75 7.25 C-5.63171875 7.97703125 -6.5134375 8.7040625 -7.421875 9.453125 C-10 11 -10 11 -12.328125 10.734375 C-12.87984375 10.49203125 -13.4315625 10.2496875 -14 10 C-9.42284316 6.5148552 -4.82419514 3.13572684 0 0 Z " fill="#A4685A" transform="translate(208,328)"/>
<path d="M0 0 C0.33 0.99 0.66 1.98 1 3 C0.2884375 3.6496875 0.2884375 3.6496875 -0.4375 4.3125 C-2.23686957 6.02309613 -2.23686957 6.02309613 -3 9 C-3.66 9 -4.32 9 -5 9 C-5.061875 9.5775 -5.12375 10.155 -5.1875 10.75 C-6.32027301 13.88690987 -8.34197595 15.09167504 -11 17 C-10.12429445 12.59214242 -7.68803513 9.69289817 -4.9375 6.25 C-4.46505859 5.64800781 -3.99261719 5.04601562 -3.50585938 4.42578125 C-2.34309599 2.94590057 -1.1723234 1.47231904 0 0 Z " fill="#A16556" transform="translate(193,254)"/>
<path d="M0 0 C1.18142578 0.28423828 1.18142578 0.28423828 2.38671875 0.57421875 C5.52681664 1.38908713 8.64083852 2.26136679 11.75 3.1875 C11.75 3.5175 11.75 3.8475 11.75 4.1875 C5.25321562 4.48280838 -0.8721448 3.36043889 -7.25 2.1875 C-7.25 1.5275 -7.25 0.8675 -7.25 0.1875 C-4.05377677 -0.87790774 -3.15254996 -0.76609169 0 0 Z " fill="#9E5E51" transform="translate(622.25,116.8125)"/>
<path d="M0 0 C3.3 0 6.6 0 10 0 C10 0.66 10 1.32 10 2 C11.65 2 13.3 2 15 2 C15 2.33 15 2.66 15 3 C10.05 3.33 5.1 3.66 0 4 C0 2.68 0 1.36 0 0 Z " fill="#F3E0D8" transform="translate(463,101)"/>
<path d="M0 0 C2.31243792 -0.02685412 4.6249627 -0.04632841 6.9375 -0.0625 C8.22527344 -0.07410156 9.51304687 -0.08570313 10.83984375 -0.09765625 C14 0 14 0 15 1 C16.51469448 1.23192865 18.03754562 1.41215238 19.5625 1.5625 C20.38878906 1.64628906 21.21507812 1.73007812 22.06640625 1.81640625 C22.70449219 1.87699219 23.34257812 1.93757813 24 2 C24 2.66 24 3.32 24 4 C15.9295642 3.38541771 7.98614219 2.30774665 0 1 C0 0.67 0 0.34 0 0 Z " fill="#F4DED4" transform="translate(383,285)"/>
<path d="M0 0 C-0.99 1.485 -0.99 1.485 -2 3 C-4.609621 3.38411275 -7.0058074 3.60293197 -9.625 3.6875 C-10.68460937 3.73874023 -10.68460937 3.73874023 -11.765625 3.79101562 C-13.50985688 3.87351308 -15.25490395 3.93843335 -17 4 C-17 3.34 -17 2.68 -17 2 C-11.16200408 0.30167391 -6.06892629 -0.25287193 0 0 Z " fill="#A6685B" transform="translate(409,117)"/>
<path d="M0 0 C0.99 0.33 1.98 0.66 3 1 C-0.96 4.96 -4.92 8.92 -9 13 C-9.66 12.34 -10.32 11.68 -11 11 C-10.01 10.67 -9.02 10.34 -8 10 C-7.31513275 8.67592331 -6.65129797 7.34090759 -6 6 C-4 3.75 -4 3.75 -2 2 C-1.34 2 -0.68 2 0 2 C0 1.34 0 0.68 0 0 Z " fill="#F6E3DA" transform="translate(175,351)"/>
<path d="M0 0 C1.67255859 0.23976562 1.67255859 0.23976562 3.37890625 0.484375 C6.45614125 1.25466626 8.09266777 2.16315664 10.4375 4.25 C7.70802356 3.94003741 4.97894015 3.62712025 2.25 3.3125 C1.09661133 3.18198242 1.09661133 3.18198242 -0.08007812 3.04882812 C-3.95022828 2.60035579 -7.75436624 2.0970999 -11.5625 1.25 C-11.5625 0.92 -11.5625 0.59 -11.5625 0.25 C-7.45889659 -0.82384015 -4.17893164 -0.63918769 0 0 Z " fill="#B07C70" transform="translate(423.5625,222.75)"/>
<path d="M0 0 C0.66 0.66 1.32 1.32 2 2 C1.828125 4.13671875 1.828125 4.13671875 1.25 6.6875 C1.05148437 7.57566406 0.85296875 8.46382812 0.6484375 9.37890625 C-0.15249295 12.61640221 -1.02894817 15.80940113 -2 19 C-2.33 19 -2.66 19 -3 19 C-2.67 13.72 -2.34 8.44 -2 3 C-1.34 3 -0.68 3 0 3 C0 2.01 0 1.02 0 0 Z " fill="#97594D" transform="translate(907,613)"/>
<path d="M0 0 C0.33 0.66 0.66 1.32 1 2 C-1.01738663 7.54781322 -4.46881163 10.49919145 -9 14 C-9.66 13.67 -10.32 13.34 -11 13 C-10.06027344 11.96939453 -10.06027344 11.96939453 -9.1015625 10.91796875 C-8.28429687 10.01691406 -7.46703125 9.11585938 -6.625 8.1875 C-5.81289062 7.29417969 -5.00078125 6.40085938 -4.1640625 5.48046875 C-1.90927093 3.00367326 -1.90927093 3.00367326 0 0 Z " fill="#A26657" transform="translate(205,240)"/>
<path d="M0 0 C0 3 0 3 -1.0625 4.5 C-3.82895613 6.64177249 -6.74902024 7.71187594 -10 9 C-10.66 8.34 -11.32 7.68 -12 7 C-8.04 4.69 -4.08 2.38 0 0 Z " fill="#A2675A" transform="translate(308,156)"/>
<path d="M0 0 C4.95 0.33 9.9 0.66 15 1 C15 1.33 15 1.66 15 2 C13.2984375 2.2165625 13.2984375 2.2165625 11.5625 2.4375 C8.19222799 2.61171478 8.19222799 2.61171478 7 4 C5.00041636 4.04080783 2.99954746 4.04254356 1 4 C0.67 2.68 0.34 1.36 0 0 Z " fill="#F5E5DD" transform="translate(462,919)"/>
<path d="M0 0 C1.0528418 0.14985352 1.0528418 0.14985352 2.12695312 0.30273438 C3.85636527 0.54979325 5.5845627 0.80532852 7.3125 1.0625 C7.3125 1.3925 7.3125 1.7225 7.3125 2.0625 C1.7025 2.0625 -3.9075 2.0625 -9.6875 2.0625 C-10.0175 1.4025 -10.3475 0.7425 -10.6875 0.0625 C-6.90794143 -1.19735286 -3.84326548 -0.57774579 0 0 Z " fill="#A76D60" transform="translate(595.6875,799.9375)"/>
<path d="M0 0 C-0.99 0.495 -0.99 0.495 -2 1 C-2 1.99 -2 2.98 -2 4 C-4.8125 4.6875 -4.8125 4.6875 -8 5 C-9.875 3.5625 -9.875 3.5625 -11 2 C-7.17010894 0.19769832 -4.21878192 -0.19622241 0 0 Z " fill="#A66055" transform="translate(745,784)"/>
<path d="M0 0 C1.8709949 2.80649235 3.23017952 5.49960473 4.625 8.5625 C5.07101562 9.53316406 5.51703125 10.50382813 5.9765625 11.50390625 C7 14 7 14 7 16 C3.56715048 14.85571683 3.3631781 14.45259103 1.8125 11.375 C-0.09792915 7.35075001 -0.36706702 4.4048042 0 0 Z " fill="#AA7163" transform="translate(427,659)"/>
<path d="M0 0 C2.83374881 3.20336822 3.5205537 5.78087253 4 10 C4.99 10 5.98 10 7 10 C6.67 12.31 6.34 14.62 6 17 C3.89149671 13.83724506 2.71169124 10.86528462 1.375 7.3125 C0.70597656 5.54326172 0.70597656 5.54326172 0.0234375 3.73828125 C-0.31429688 2.83464844 -0.65203125 1.93101562 -1 1 C-0.67 0.67 -0.34 0.34 0 0 Z " fill="#9E6053" transform="translate(440,586)"/>
<path d="M0 0 C0 5.61 0 11.22 0 17 C-0.33 17 -0.66 17 -1 17 C-1.22786458 14.94921875 -1.45572917 12.8984375 -1.68359375 10.84765625 C-1.81886614 8.98859771 -1.81886614 8.98859771 -3 8 C-3.04092937 5.66702567 -3.04241723 3.33294775 -3 1 C-1 0 -1 0 0 0 Z " fill="#F6E8E0" transform="translate(612,459)"/>
<path d="M0 0 C0.99 0.33 1.98 0.66 3 1 C-1.455 6.94 -1.455 6.94 -6 13 C-6.33 12.01 -6.66 11.02 -7 10 C-5.56640625 7.51953125 -5.56640625 7.51953125 -3.5625 4.8125 C-2.90378906 3.91144531 -2.24507812 3.01039063 -1.56640625 2.08203125 C-1.04949219 1.39496094 -0.53257812 0.70789063 0 0 Z " fill="#F7E5DB" transform="translate(151,376)"/>
<path d="M0 0 C2.6855594 2.6855594 3.06049974 5.37621328 4 9 C2.35 9.33 0.7 9.66 -1 10 C-2.15837626 5.94568308 -1.83691257 3.78187881 0 0 Z " fill="#A76355" transform="translate(890,354)"/>
<path d="M0 0 C0 0.33 0 0.66 0 1 C-5.96674616 2.32594359 -11.92583615 2.0884587 -18 2 C-18 1.34 -18 0.68 -18 0 C-11.78675502 -0.73030908 -6.15901243 -1.23180249 0 0 Z " fill="#EED7CE" transform="translate(676,801)"/>
<path d="M0 0 C1.79275866 3.11910856 2.34290718 5.67682428 2.625 9.25 C2.69976563 10.14203125 2.77453125 11.0340625 2.8515625 11.953125 C2.90054688 12.62859375 2.94953125 13.3040625 3 14 C2.34 12.68 1.68 11.36 1 10 C0.34 10 -0.32 10 -1 10 C-2.46726798 6.18510326 -1.43336419 3.70988378 0 0 Z " fill="#A06152" transform="translate(912,423)"/>
<path d="M0 0 C5.28 0 10.56 0 16 0 C12.71508627 2.18994248 11.16904361 2.35277339 7.3125 2.625 C5.82169922 2.73714844 5.82169922 2.73714844 4.30078125 2.8515625 C3.16189453 2.92503906 3.16189453 2.92503906 2 3 C1.34 2.01 0.68 1.02 0 0 Z " fill="#A25245" transform="translate(413,220)"/>
<path d="M0 0 C5.32187227 1.21376034 10.03906272 2.72623708 15 5 C14.01 6.485 14.01 6.485 13 8 C11.35 7.67 9.7 7.34 8 7 C8.33 6.34 8.66 5.68 9 5 C6.03 4.01 3.06 3.02 0 2 C0 1.34 0 0.68 0 0 Z " fill="#9E5F54" transform="translate(554,789)"/>
<path d="M0 0 C-1.65 0.66 -3.3 1.32 -5 2 C-4.67 2.99 -4.34 3.98 -4 5 C-4.495 4.835 -4.99 4.67 -5.5 4.5 C-9.03444089 3.79311182 -12.39690701 3.93994845 -16 4 C-13.03017788 2.41839705 -10.09120779 1.29656358 -6.875 0.3125 C-6.00617187 0.04050781 -5.13734375 -0.23148438 -4.2421875 -0.51171875 C-2 -1 -2 -1 0 0 Z " fill="#A97267" transform="translate(724,791)"/>
<path d="M0 0 C0.66 0.66 1.32 1.32 2 2 C1.9765625 4.1640625 1.9765625 4.1640625 1.625 6.625 C1.51414062 7.44226563 1.40328125 8.25953125 1.2890625 9.1015625 C1.19367187 9.72804688 1.09828125 10.35453125 1 11 C0.34 11 -0.32 11 -1 11 C-2.1875 9.4375 -2.1875 9.4375 -3 7 C-1.625 3.25 -1.625 3.25 0 0 Z " fill="#A46458" transform="translate(904,616)"/>
<path d="M0 0 C2.37616467 2.37616467 3.04068181 4.35349521 4.1875 7.5 C4.55230469 8.4796875 4.91710937 9.459375 5.29296875 10.46875 C6 13 6 13 5 15 C1.24569762 9.83783423 -0.67081836 6.43985624 0 0 Z " fill="#EED7CF" transform="translate(590,479)"/>
<path d="M0 0 C0.66 0.66 1.32 1.32 2 2 C1.75 5.5625 1.75 5.5625 1 9 C0.01 9.495 0.01 9.495 -1 10 C-3.06878307 5.61904762 -3.06878307 5.61904762 -2.75 2.75 C-2 1 -2 1 0 0 Z " fill="#9F6457" transform="translate(593,474)"/>
<path d="M0 0 C0.66 0.33 1.32 0.66 2 1 C0.90902202 2.84121215 -0.19819251 4.67281256 -1.3125 6.5 C-2.23482422 8.03140625 -2.23482422 8.03140625 -3.17578125 9.59375 C-3.77777344 10.3878125 -4.37976563 11.181875 -5 12 C-5.99 12 -6.98 12 -8 12 C-7.67 11.01 -7.34 10.02 -7 9 C-6.34 9 -5.68 9 -5 9 C-4.731875 8.2575 -4.46375 7.515 -4.1875 6.75 C-3.05770579 4.13363446 -1.79106798 2.19812889 0 0 Z " fill="#F9E8DE" transform="translate(874,672)"/>
<path d="M0 0 C0.33 0.99 0.66 1.98 1 3 C-0.07356677 4.15498897 -1.15929788 5.29867867 -2.25 6.4375 C-2.85328125 7.07558594 -3.4565625 7.71367187 -4.078125 8.37109375 C-6.10048016 10.08516306 -7.41270605 10.59358878 -10 11 C-6.79239749 7.19364503 -3.59253891 3.45436433 0 0 Z " fill="#A46758" transform="translate(169,360)"/>
<path d="M0 0 C0.66 0 1.32 0 2 0 C1.52583422 4.97874064 0.0900669 8.06718758 -3 12 C-3.66 12 -4.32 12 -5 12 C-3.68938409 7.76570244 -2.05643741 3.92592596 0 0 Z " fill="#9E6053" transform="translate(143,332)"/>
<path d="M0 0 C2.0836309 0.14151828 4.16689938 0.28837936 6.25 0.4375 C7.99023438 0.55931641 7.99023438 0.55931641 9.765625 0.68359375 C12.30977376 0.93247787 14.55953248 1.28114942 17 2 C17 2.66 17 3.32 17 4 C11.08507728 3.54775239 5.64800112 2.8417395 0 1 C0 0.67 0 0.34 0 0 Z " fill="#A2675B" transform="translate(386,902)"/>
<path d="M0 0 C0.66 0.66 1.32 1.32 2 2 C-0.16087353 5.9805565 -2.58492687 9.01181101 -6 12 C-6.99 12 -7.98 12 -9 12 C-6.03 8.04 -3.06 4.08 0 0 Z " fill="#F4E0D9" transform="translate(881,636)"/>
<path d="M0 0 C0.66 0.33 1.32 0.66 2 1 C-0.475 6.94 -0.475 6.94 -3 13 C-3.33 13 -3.66 13 -4 13 C-4.33 10.69 -4.66 8.38 -5 6 C-4.34 5.67 -3.68 5.34 -3 5 C-2.835 4.34 -2.67 3.68 -2.5 3 C-2.335 2.34 -2.17 1.68 -2 1 C-1.34 0.67 -0.68 0.34 0 0 Z " fill="#A26559" transform="translate(430,482)"/>
<path d="M0 0 C0 0.66 0 1.32 0 2 C2.31 2.66 4.62 3.32 7 4 C7 4.66 7 5.32 7 6 C2.39146203 5.27991594 -1.67237409 3.68704061 -6 2 C-3 0 -3 0 0 0 Z " fill="#A87367" transform="translate(359,889)"/>
<path d="M0 0 C0.33 0.99 0.66 1.98 1 3 C-0.09283577 4.03295436 -1.19970579 5.05107835 -2.3125 6.0625 C-2.92738281 6.63097656 -3.54226563 7.19945312 -4.17578125 7.78515625 C-4.77777344 8.18605469 -5.37976563 8.58695313 -6 9 C-6.99 8.67 -7.98 8.34 -9 8 C-7.87811441 6.85111717 -6.75238316 5.70598863 -5.625 4.5625 C-4.99851562 3.92441406 -4.37203125 3.28632812 -3.7265625 2.62890625 C-2 1 -2 1 0 0 Z " fill="#A56B5D" transform="translate(838,720)"/>
<path d="M0 0 C0.33 0 0.66 0 1 0 C1.77313045 5.9114744 2.14819277 11.1314592 1 17 C0.34 17 -0.32 17 -1 17 C-0.67 11.39 -0.34 5.78 0 0 Z " fill="#A76F62" transform="translate(611,476)"/>
<path d="M0 0 C-1.55500981 3.81684226 -4.03595495 6.19195732 -7 9 C-6.6875 5.625 -6.6875 5.625 -6 2 C-3 0 -3 0 0 0 Z " fill="#A16253" transform="translate(445,460)"/>
<path d="M0 0 C0.33 0.66 0.66 1.32 1 2 C1.99 2.33 2.98 2.66 4 3 C3.34 4.32 2.68 5.64 2 7 C1.67 6.01 1.34 5.02 1 4 C0.01 6.97 -0.98 9.94 -2 13 C-3.08828929 9.73513213 -2.89901381 8.63009917 -2.125 5.375 C-1.94195312 4.57835937 -1.75890625 3.78171875 -1.5703125 2.9609375 C-1 1 -1 1 0 0 Z " fill="#945244" transform="translate(119,396)"/>
<path d="M0 0 C0.66 0.33 1.32 0.66 2 1 C0.68 5.29 -0.64 9.58 -2 14 C-2.33 14 -2.66 14 -3 14 C-3.08153933 12.41753293 -3.13943557 10.83383727 -3.1875 9.25 C-3.22230469 8.36828125 -3.25710937 7.4865625 -3.29296875 6.578125 C-2.94923684 3.55328417 -1.99772541 2.24416398 0 0 Z " fill="#F9E8DD" transform="translate(121,381)"/>
<path d="M0 0 C3.96 1.98 3.96 1.98 8 4 C7.67 4.66 7.34 5.32 7 6 C4.67843403 6.40729228 2.3431213 6.74438677 0 7 C0 6.34 0 5.68 0 5 C0.66 4.67 1.32 4.34 2 4 C1.34 3.67 0.68 3.34 0 3 C0 2.01 0 1.02 0 0 Z " fill="#A25F51" transform="translate(470,312)"/>
<path d="M0 0 C5.23880078 0.55145271 9.97350697 1.42922093 15 3 C15 3.33 15 3.66 15 4 C14.24074219 3.91621094 13.48148437 3.83242188 12.69921875 3.74609375 C11.70535156 3.64425781 10.71148437 3.54242188 9.6875 3.4375 C8.70136719 3.33308594 7.71523438 3.22867187 6.69921875 3.12109375 C3.90069653 2.83397473 3.90069653 2.83397473 1 4 C0.67 2.68 0.34 1.36 0 0 Z " fill="#9B5C4E" transform="translate(412,291)"/>
<path d="M0 0 C0 0.99 0 1.98 0 3 C-2.8125 5.75 -2.8125 5.75 -6 8 C-6.99 7.67 -7.98 7.34 -9 7 C-6.24479785 4.04070881 -3.53372712 1.96318174 0 0 Z " fill="#A16659" transform="translate(295,164)"/>
<path d="M0 0 C2.00720923 0.28674418 4.0085944 0.61866701 6 1 C6 1.66 6 2.32 6 3 C3.03 4.32 0.06 5.64 -3 7 C-3.33 6.34 -3.66 5.68 -4 5 C-2.35 4.34 -0.7 3.68 1 3 C0.34 2.34 -0.32 1.68 -1 1 C-0.67 0.67 -0.34 0.34 0 0 Z " fill="#A06053" transform="translate(699,872)"/>
<path d="M0 0 C0.99 0.33 1.98 0.66 3 1 C2.17812739 5.38332057 1.09845718 9.67940177 0 14 C-0.66 13.67 -1.32 13.34 -2 13 C-1.34 8.71 -0.68 4.42 0 0 Z " fill="#A3685C" transform="translate(419,507)"/>
<path d="M0 0 C1.55347992 4.14261313 0.88763731 7.76665282 0 12 C-2.05078125 13.2421875 -2.05078125 13.2421875 -4 14 C-3.52188823 12.22888156 -3.0424722 10.45811517 -2.5625 8.6875 C-2.29566406 7.70136719 -2.02882813 6.71523438 -1.75390625 5.69921875 C-1.21920575 3.78482474 -0.62855462 1.88566385 0 0 Z " fill="#AF786C" transform="translate(115,443)"/>
<path d="M0 0 C0.66 0.33 1.32 0.66 2 1 C-3 6 -3 6 -4.9453125 6.1953125 C-6.96354167 6.13020833 -8.98177083 6.06510417 -11 6 C-8.66460191 4.44306794 -6.42031244 3.09799354 -3.9375 1.8125 C-2.89916016 1.26529297 -2.89916016 1.26529297 -1.83984375 0.70703125 C-1.23269531 0.47371094 -0.62554687 0.24039062 0 0 Z " fill="#A36A5D" transform="translate(255,303)"/>
<path d="M0 0 C1.20655614 3.48200765 0.78332187 5.64537606 -0.3125 9.125 C-0.57675781 9.99382813 -0.84101562 10.86265625 -1.11328125 11.7578125 C-2 14 -2 14 -4 16 C-5.22357035 12.32928895 -4.62076669 11.46605248 -3.125 8 C-1.99197602 5.3377898 -0.91561902 2.74685707 0 0 Z " fill="#F3DCD4" transform="translate(899,648)"/>
<path d="M0 0 C0.33 0 0.66 0 1 0 C1.36539443 4.28577219 0.48423598 6.34492062 -2 9.8125 C-2.556875 10.60269531 -3.11375 11.39289063 -3.6875 12.20703125 C-4.120625 12.79871094 -4.55375 13.39039063 -5 14 C-5.33 13.34 -5.66 12.68 -6 12 C-4.78515625 9.1796875 -4.78515625 9.1796875 -3.0625 5.875 C-2.49660156 4.77929688 -1.93070312 3.68359375 -1.34765625 2.5546875 C-0.90292969 1.71164062 -0.45820313 0.86859375 0 0 Z " fill="#F5DFD6" transform="translate(436,473)"/>
<path d="M0 0 C5.93002267 -0.37851209 10.47239641 0.89424625 16 3 C16 3.66 16 4.32 16 5 C10.72 3.68 5.44 2.36 0 1 C0 0.67 0 0.34 0 0 Z " fill="#A46E62" transform="translate(528,430)"/>
<path d="M0 0 C0.66 0.33 1.32 0.66 2 1 C2.39764263 2.98821313 2.72428861 4.99124558 3 7 C3.226875 7.7425 3.45375 8.485 3.6875 9.25 C3.790625 9.8275 3.89375 10.405 4 11 C3.34 11.66 2.68 12.32 2 13 C1.47212358 11.02270019 0.95287097 9.04309608 0.4375 7.0625 C0.00244141 5.40927734 0.00244141 5.40927734 -0.44140625 3.72265625 C-0.62574219 2.82417969 -0.81007813 1.92570312 -1 1 C-0.67 0.67 -0.34 0.34 0 0 Z " fill="#A06152" transform="translate(601,380)"/>
<path d="M0 0 C0 0.99 0 1.98 0 3 C-1.61992165 3.86375896 -3.24611861 4.71575854 -4.875 5.5625 C-6.23238281 6.27599609 -6.23238281 6.27599609 -7.6171875 7.00390625 C-8.40351563 7.33261719 -9.18984375 7.66132813 -10 8 C-10.66 7.67 -11.32 7.34 -12 7 C-8.04 4.69 -4.08 2.38 0 0 Z " fill="#9D6657" transform="translate(228,316)"/>
<path d="M0 0 C0.66 0.33 1.32 0.66 2 1 C1.04663979 2.31611677 0.08714226 3.62778961 -0.875 4.9375 C-1.40867187 5.66839844 -1.94234375 6.39929688 -2.4921875 7.15234375 C-4 9 -4 9 -6 10 C-5.34 7.36 -4.68 4.72 -4 2 C-2.68 2 -1.36 2 0 2 C0 1.34 0 0.68 0 0 Z " fill="#9B5B4D" transform="translate(845,749)"/>
<path d="M0 0 C0.66 0 1.32 0 2 0 C1.44449305 3.59905908 0.25112752 4.99909799 -2.5625 7.25 C-3.20316406 7.77078125 -3.84382812 8.2915625 -4.50390625 8.828125 C-4.99761719 9.21484375 -5.49132812 9.6015625 -6 10 C-6 9.01 -6 8.02 -6 7 C-5.34 7 -4.68 7 -4 7 C-4 6.01 -4 5.02 -4 4 C-2.68 3.67 -1.36 3.34 0 3 C0 2.01 0 1.02 0 0 Z " fill="#A66B5F" transform="translate(859,660)"/>
<path d="M0 0 C1.13732426 3.40401948 0.83989957 5.77456664 0.0625 9.25 C-0.13214844 10.14203125 -0.32679688 11.0340625 -0.52734375 11.953125 C-0.68332031 12.62859375 -0.83929687 13.3040625 -1 14 C-1.66 14 -2.32 14 -3 14 C-2.48594831 9.03083364 -1.76615118 4.70973649 0 0 Z " fill="#EDD3CA" transform="translate(905,629)"/>
<path d="M0 0 C2.09715785 3.14573677 2.52004559 5.01456251 3.125 8.6875 C3.29257812 9.68136719 3.46015625 10.67523437 3.6328125 11.69921875 C3.75398438 12.45847656 3.87515625 13.21773437 4 14 C3.34 14 2.68 14 2 14 C0.02905192 9.07262981 -0.1799928 5.21979128 0 0 Z " fill="#F0D9D0" transform="translate(431,563)"/>
<path d="M0 0 C0.66 0.33 1.32 0.66 2 1 C-0.64 4.3 -3.28 7.6 -6 11 C-6.33 10.01 -6.66 9.02 -7 8 C-5.56640625 5.95703125 -5.56640625 5.95703125 -3.5625 3.8125 C-2.90378906 3.09707031 -2.24507812 2.38164062 -1.56640625 1.64453125 C-1.04949219 1.10183594 -0.53257812 0.55914062 0 0 Z " fill="#9E6154" transform="translate(162,330)"/>
<path d="M0 0 C0 0.66 0 1.32 0 2 C-3.14930893 3.04976964 -5.38814456 3.10131595 -8.6875 3.0625 C-9.68136719 3.05347656 -10.67523437 3.04445313 -11.69921875 3.03515625 C-12.83810547 3.01775391 -12.83810547 3.01775391 -14 3 C-14 2.67 -14 2.34 -14 2 C-12.4176994 1.66179834 -10.83410625 1.32964061 -9.25 1 C-8.36828125 0.814375 -7.4865625 0.62875 -6.578125 0.4375 C-4 0 -4 0 0 0 Z " fill="#EDD7CD" transform="translate(733,736)"/>
<path d="M0 0 C3.53233755 1.17744585 3.86308075 1.95605641 5.6875 5.0625 C6.12449219 5.79597656 6.56148438 6.52945313 7.01171875 7.28515625 C7.33785156 7.85105469 7.66398437 8.41695312 8 9 C6.078125 8.66015625 6.078125 8.66015625 4 8 C2.75 5.4375 2.75 5.4375 2 3 C1.34 3 0.68 3 0 3 C0 2.01 0 1.02 0 0 Z " fill="#F7E5DE" transform="translate(475,652)"/>
<path d="M0 0 C0.86625 0.556875 0.86625 0.556875 1.75 1.125 C-0.5625 2.6875 -0.5625 2.6875 -3.25 4.125 C-4.24 3.795 -5.23 3.465 -6.25 3.125 C-6.25 2.465 -6.25 1.805 -6.25 1.125 C-2.80384615 -1.09038462 -2.80384615 -1.09038462 0 0 Z " fill="#A96556" transform="translate(552.25,592.875)"/>
<path d="M0 0 C1.32 0.33 2.64 0.66 4 1 C3.01 3.97 2.02 6.94 1 10 C0.67 10 0.34 10 0 10 C0 6.7 0 3.4 0 0 Z " fill="#A15E4F" transform="translate(903,585)"/>
<path d="M0 0 C0.33 0 0.66 0 1 0 C1.61538462 7.26153846 1.61538462 7.26153846 -1.5 11 C-2.325 11.66 -3.15 12.32 -4 13 C-3.79503906 12.39671875 -3.59007812 11.7934375 -3.37890625 11.171875 C-2.97478516 9.97304688 -2.97478516 9.97304688 -2.5625 8.75 C-2.29566406 7.96109375 -2.02882813 7.1721875 -1.75390625 6.359375 C-1.08045292 4.25178012 -0.50849405 2.15246027 0 0 Z " fill="#F2DDD3" transform="translate(910,577)"/>
<path d="M0 0 C1.32 0.66 2.64 1.32 4 2 C3.54625 2.556875 3.0925 3.11375 2.625 3.6875 C0.96266232 6.05313439 -0.02144543 8.29015658 -1 11 C-2.31625194 8.36749612 -1.74813658 7.19820944 -1.0625 4.375 C-0.86785156 3.55773437 -0.67320313 2.74046875 -0.47265625 1.8984375 C-0.23869141 0.95871094 -0.23869141 0.95871094 0 0 Z " fill="#A56456" transform="translate(117,438)"/>
<path d="M0 0 C0.144375 0.639375 0.28875 1.27875 0.4375 1.9375 C0.81007181 3.97545146 0.81007181 3.97545146 2 5 C2.04092937 7.33297433 2.04241723 9.66705225 2 12 C1.01 11.67 0.02 11.34 -1 11 C-1.125 3.375 -1.125 3.375 0 0 Z " fill="#A4695C" transform="translate(116,402)"/>
<path d="M0 0 C0.99 0.33 1.98 0.66 3 1 C1.35 4.63 -0.3 8.26 -2 12 C-3.15957207 8.52128379 -2.77456651 7.65780355 -1.5625 4.3125 C-1.13130859 3.10013672 -1.13130859 3.10013672 -0.69140625 1.86328125 C-0.46324219 1.24839844 -0.23507813 0.63351562 0 0 Z " fill="#A0665A" transform="translate(133,373)"/>
<path d="M0 0 C0.66 0.66 1.32 1.32 2 2 C0.02 5.63 -1.96 9.26 -4 13 C-4.33 13 -4.66 13 -5 13 C-5.83861979 7.63283335 -2.92070405 4.20372761 0 0 Z " fill="#9F665B" transform="translate(145,353)"/>
<path d="M0 0 C0 0.99 0 1.98 0 3 C-1.53125 4.38671875 -1.53125 4.38671875 -3.5 5.6875 C-4.47453125 6.34298828 -4.47453125 6.34298828 -5.46875 7.01171875 C-5.9740625 7.33785156 -6.479375 7.66398438 -7 8 C-7.66 7.34 -8.32 6.68 -9 6 C-6.03 4.02 -3.06 2.04 0 0 Z " fill="#A06658" transform="translate(273,179)"/>
<path d="M0 0 C3.375 0.6875 3.375 0.6875 7 2 C8.4375 4.625 8.4375 4.625 9 7 C8.01 7 7.02 7 6 7 C6 5.68 6 4.36 6 3 C4.35 3 2.7 3 1 3 C0.67 2.01 0.34 1.02 0 0 Z " fill="#A25E50" transform="translate(638,122)"/>
<path d="M0 0 C2.31 0.33 4.62 0.66 7 1 C7.33 2.32 7.66 3.64 8 5 C5.03 4.01 2.06 3.02 -1 2 C-0.67 1.34 -0.34 0.68 0 0 Z " fill="#F2DED5" transform="translate(648,123)"/>
<path d="M0 0 C0.66 0.33 1.32 0.66 2 1 C0.35 2.98 -1.3 4.96 -3 7 C-3.99 6.67 -4.98 6.34 -6 6 C-6 5.34 -6 4.68 -6 4 C-4.03852126 2.61061923 -2.03833424 1.2739589 0 0 Z " fill="#A76659" transform="translate(791,757)"/>
<path d="M0 0 C5.28497409 -0.44041451 5.28497409 -0.44041451 8 0 C10.5 2.5 10.5 2.5 12 5 C10.18504338 4.55149342 8.37306866 4.09090429 6.5625 3.625 C5.55316406 3.36976563 4.54382813 3.11453125 3.50390625 2.8515625 C1 2 1 2 0 0 Z " fill="#9C6355" transform="translate(586,728)"/>
<path d="M0 0 C0.99 0.33 1.98 0.66 3 1 C1.79618552 3.49361571 0.54571278 5.68143083 -1 8 C-1.66 8 -2.32 8 -3 8 C-1.125 2.25 -1.125 2.25 0 0 Z " fill="#A36557" transform="translate(888,651)"/>
<path d="M0 0 C0.33 0 0.66 0 1 0 C1.05437607 1.58294782 1.09296271 3.16644256 1.125 4.75 C1.14820313 5.63171875 1.17140625 6.5134375 1.1953125 7.421875 C0.99139502 10.1135858 0.36551721 11.69904974 -1 14 C-1.66 14 -2.32 14 -3 14 C-2.01 9.38 -1.02 4.76 0 0 Z " fill="#F4DCD2" transform="translate(915,559)"/>
<path d="M0 0 C0.66 0.33 1.32 0.66 2 1 C1.49396008 3.16874252 1.00016187 4.99967627 0 7 C-0.66 7 -1.32 7 -2 7 C-2 7.66 -2 8.32 -2 9 C-2.66 9 -3.32 9 -4 9 C-2.80100302 5.9168649 -1.52299523 2.93720508 0 0 Z " fill="#A36356" transform="translate(132,408)"/>
<path d="M0 0 C0.99 0 1.98 0 3 0 C3.33 2.31 3.66 4.62 4 7 C3.01 7 2.02 7 1 7 C1 5.68 1 4.36 1 3 C0.34 2.67 -0.32 2.34 -1 2 C-0.67 1.34 -0.34 0.68 0 0 Z " fill="#F6E8DE" transform="translate(593,368)"/>
<path d="M0 0 C2.475 0.99 2.475 0.99 5 2 C1.93753253 3.78409802 -0.22079273 4.22880021 -3.75 4.125 C-4.54921875 4.10695312 -5.3484375 4.08890625 -6.171875 4.0703125 C-6.77515625 4.04710937 -7.3784375 4.02390625 -8 4 C-8 3.67 -8 3.34 -8 3 C-6.865625 2.690625 -5.73125 2.38125 -4.5625 2.0625 C-1.21224901 1.37075469 -1.21224901 1.37075469 0 0 Z " fill="#9B5D50" transform="translate(320,226)"/>
<path d="M0 0 C2.64 0.66 5.28 1.32 8 2 C8.33 3.65 8.66 5.3 9 7 C7.4972763 6.02501855 5.99788037 5.04490611 4.5 4.0625 C3.6646875 3.51722656 2.829375 2.97195313 1.96875 2.41015625 C1.3190625 1.94480469 0.669375 1.47945312 0 1 C0 0.67 0 0.34 0 0 Z " fill="#A46A5F" transform="translate(258,834)"/>
<path d="M0 0 C0.87656469 2.45438114 1.15930238 3.59561703 0.1875 6.0625 C-0.83619809 7.73274425 -1.91334336 9.37001504 -3 11 C-3.66 11 -4.32 11 -5 11 C-3.77472971 6.94718288 -2.30119506 3.55639236 0 0 Z " fill="#F3DDD5" transform="translate(896,611)"/>
<path d="M0 0 C0.66 0 1.32 0 2 0 C0.92598892 2.91517292 0.22189824 4.77810176 -2 7 C-2.99 6.67 -3.98 6.34 -5 6 C-3.38405168 3.95880212 -1.7143618 1.95927063 0 0 Z " fill="#A26153" transform="translate(585,562)"/>
<path d="M0 0 C0.33 0.66 0.66 1.32 1 2 C1.99 2.33 2.98 2.66 4 3 C3.34 4.32 2.68 5.64 2 7 C1.01 7 0.02 7 -1 7 C-0.67 4.69 -0.34 2.38 0 0 Z " fill="#995E51" transform="translate(114,411)"/>
<path d="M0 0 C-1.45537568 0.83848804 -2.91440373 1.67063934 -4.375 2.5 C-5.59316406 3.19609375 -5.59316406 3.19609375 -6.8359375 3.90625 C-9 5 -9 5 -11 5 C-10 2 -10 2 -7.1875 0.25 C-3.86017895 -1.05483179 -3.20415723 -1.02866653 0 0 Z " fill="#A06458" transform="translate(256,255)"/>
<path d="M0 0 C0.33 0.99 0.66 1.98 1 3 C-0.21484375 4.82421875 -0.21484375 4.82421875 -1.9375 6.6875 C-2.50339844 7.31011719 -3.06929687 7.93273437 -3.65234375 8.57421875 C-4.09707031 9.04472656 -4.54179688 9.51523437 -5 10 C-5.66 9.67 -6.32 9.34 -7 9 C-4.69 6.03 -2.38 3.06 0 0 Z " fill="#F1D9D0" transform="translate(847,749)"/>
<path d="M0 0 C-0.33 0.33 -0.66 0.66 -1 1 C-0.01 1.66 0.98 2.32 2 3 C-0.97 3 -3.94 3 -7 3 C-6.67 2.01 -6.34 1.02 -6 0 C-3 -1 -3 -1 0 0 Z " fill="#A46355" transform="translate(704,738)"/>
<path d="M0 0 C2.40358636 0.26310129 4.01691725 1.04304509 6.10546875 2.23046875 C4.69113669 2.45410245 3.27379257 2.65873351 1.85546875 2.85546875 C1.0665625 2.97148438 0.27765625 3.0875 -0.53515625 3.20703125 C-3.21605584 3.2336627 -4.62147214 2.59638959 -6.89453125 1.23046875 C-5.03663049 -0.62743201 -2.46980966 0.05097168 0 0 Z " fill="#A05345" transform="translate(746.89453125,727.76953125)"/>
<path d="M0 0 C1.5625 1.8125 1.5625 1.8125 3 4 C2.67 4.99 2.34 5.98 2 7 C-0.0625 7.6875 -0.0625 7.6875 -2 8 C-1.125 2.25 -1.125 2.25 0 0 Z " fill="#A26D62" transform="translate(907,608)"/>
<path d="M0 0 C1.00901206 4.03604824 1.03221487 6.04317633 0 10 C-0.99 10.66 -1.98 11.32 -3 12 C-2.01 8.04 -1.02 4.08 0 0 Z " fill="#AD7B6C" transform="translate(603,518)"/>
<path d="M0 0 C0.99 0 1.98 0 3 0 C3.6875 2.3125 3.6875 2.3125 4 5 C2.5625 6.8125 2.5625 6.8125 1 8 C0.67 5.36 0.34 2.72 0 0 Z " fill="#F8E9DF" transform="translate(914,428)"/>
<path d="M0 0 C-1.28913487 0.67154933 -2.58140204 1.33708859 -3.875 2 C-4.59429688 2.37125 -5.31359375 2.7425 -6.0546875 3.125 C-8 4 -8 4 -10 4 C-9 1 -9 1 -6.6875 -0.25 C-3.83402593 -1.04631835 -2.75197675 -0.8214856 0 0 Z " fill="#F1DDD4" transform="translate(635,905)"/>
<path d="M0 0 C-2.76223278 2.76223278 -5.20706617 2.57856291 -9 3 C-9.33 2.34 -9.66 1.68 -10 1 C-3.375 -1.125 -3.375 -1.125 0 0 Z " fill="#A4695D" transform="translate(628,905)"/>
<path d="M0 0 C4.455 0.99 4.455 0.99 9 2 C9 2.99 9 3.98 9 5 C6.03 4.01 3.06 3.02 0 2 C0 1.34 0 0.68 0 0 Z " fill="#A66D60" transform="translate(339,883)"/>
<path d="M0 0 C6.625 0.75 6.625 0.75 10 3 C8.375 3.6875 8.375 3.6875 6 4 C2.75 2.5625 2.75 2.5625 0 1 C0 0.67 0 0.34 0 0 Z " fill="#9E6051" transform="translate(564,720)"/>
<path d="M0 0 C0.66 0 1.32 0 2 0 C2.125 2.875 2.125 2.875 2 6 C1.34 6.66 0.68 7.32 0 8 C-0.33 7.67 -0.66 7.34 -1 7 C-0.71269945 4.66055264 -0.38063221 2.3260857 0 0 Z " fill="#8F574E" transform="translate(909,604)"/>
<path d="M0 0 C0.66 0 1.32 0 2 0 C2.25 6.625 2.25 6.625 0 10 C-1.125 3.375 -1.125 3.375 0 0 Z " fill="#FAF0E8" transform="translate(916,561)"/>
<path d="M0 0 C1.46726798 3.81489674 0.43336419 6.29011622 -1 10 C-1.66 10 -2.32 10 -3 10 C-2.39009109 6.44219804 -1.4216319 3.3171411 0 0 Z " fill="#A26C5F" transform="translate(599,532)"/>
<path d="M0 0 C0.99 0.33 1.98 0.66 3 1 C2.34 3.31 1.68 5.62 1 8 C0.34 8 -0.32 8 -1 8 C-0.67 5.36 -0.34 2.72 0 0 Z " fill="#F2DFD4" transform="translate(416,529)"/>
<path d="M0 0 C3.59391114 1.33488128 6.75490696 2.96022723 10 5 C9.34 5.66 8.68 6.32 8 7 C6.66382648 6.02471263 5.3311249 5.04466681 4 4.0625 C3.2575 3.51722656 2.515 2.97195313 1.75 2.41015625 C1.1725 1.94480469 0.595 1.47945313 0 1 C0 0.67 0 0.34 0 0 Z " fill="#A56C60" transform="translate(560,443)"/>
<path d="M0 0 C0.66 1.32 1.32 2.64 2 4 C0.68 5.32 -0.64 6.64 -2 8 C-2.66 7.67 -3.32 7.34 -4 7 C-2.68 4.69 -1.36 2.38 0 0 Z " fill="#A46656" transform="translate(138,398)"/>
<path d="M0 0 C0.33 0.66 0.66 1.32 1 2 C-1.47812494 5.45167403 -2.79606135 7.23163306 -7 8 C-6.02133662 6.85373678 -5.04205413 5.70800212 -4.0625 4.5625 C-3.51722656 3.92441406 -2.97195312 3.28632813 -2.41015625 2.62890625 C-1.63204305 1.73008851 -0.84063472 0.84063472 0 0 Z " fill="#A26658" transform="translate(177,352)"/>
<path d="M0 0 C0.66 0 1.32 0 2 0 C2.99 2.97 3.98 5.94 5 9 C4.01 8.67 3.02 8.34 2 8 C0.5522078 5.10441559 0 3.25811062 0 0 Z " fill="#A1695B" transform="translate(885,344)"/>
<path d="M0 0 C3.34373475 0.55728913 6.03312999 1.35173889 9 3 C8.67 3.66 8.34 4.32 8 5 C2.25 4.125 2.25 4.125 0 3 C0 2.01 0 1.02 0 0 Z " fill="#9D5D4E" transform="translate(454,305)"/>
<path d="M0 0 C0.66 0.33 1.32 0.66 2 1 C-0.23943282 4.35914922 -1.26842083 4.81681636 -5 6 C-5.99 6 -6.98 6 -8 6 C-5.38485683 3.87961365 -2.80362384 1.86908256 0 0 Z " fill="#F4DFD7" transform="translate(241,262)"/>
<path d="M0 0 C0.66 0.66 1.32 1.32 2 2 C1.01 3.485 1.01 3.485 0 5 C-3.125 5.1875 -3.125 5.1875 -6 5 C-2.25 1.125 -2.25 1.125 0 0 Z " fill="#A36457" transform="translate(280,174)"/>
<path d="M0 0 C-3.79692186 2.82561627 -6.18569279 4.56638908 -11 4 C-3.77464789 -1.88732394 -3.77464789 -1.88732394 0 0 Z " fill="#A26D5F" transform="translate(347,138)"/>
<path d="M0 0 C5.94 0.99 5.94 0.99 12 2 C11.34 2.66 10.68 3.32 10 4 C7.87109375 3.828125 7.87109375 3.828125 5.4375 3.25 C4.22900391 2.97929688 4.22900391 2.97929688 2.99609375 2.703125 C1 2 1 2 0 0 Z " fill="#9F6558" transform="translate(596,111)"/>
<path d="M0 0 C2.64 0 5.28 0 8 0 C7.67 0.99 7.34 1.98 7 3 C4.36 2.67 1.72 2.34 -1 2 C-0.67 1.34 -0.34 0.68 0 0 Z " fill="#FAF6F1" transform="translate(425,106)"/>
<path d="M0 0 C0.33 0.99 0.66 1.98 1 3 C-0.32 4.32 -1.64 5.64 -3 7 C-3.99 6.67 -4.98 6.34 -6 6 C-4.02 4.02 -2.04 2.04 0 0 Z " fill="#A56A5D" transform="translate(848,709)"/>
<path d="M0 0 C0 0.66 0 1.32 0 2 C-5.75 5 -5.75 5 -8 5 C-8 4.34 -8 3.68 -8 3 C-7.34 3 -6.68 3 -6 3 C-6 2.34 -6 1.68 -6 1 C-3.92446352 0.4465236 -2.15634036 0 0 0 Z " fill="#9F6457" transform="translate(805,706)"/>
<path d="M0 0 C0.99 0.66 1.98 1.32 3 2 C2.360625 2.2475 1.72125 2.495 1.0625 2.75 C-1.18741541 3.81562433 -1.18741541 3.81562433 -1.75 6.125 C-1.8325 6.74375 -1.915 7.3625 -2 8 C-2.66 8 -3.32 8 -4 8 C-2.87548273 5.0280615 -1.77706209 2.66559313 0 0 Z " fill="#A1675A" transform="translate(881,664)"/>
<path d="M0 0 C1.0326802 2.78823655 1.04509293 3.8677274 0.0625 6.75 C-0.288125 7.4925 -0.63875 8.235 -1 9 C-1.66 9 -2.32 9 -3 9 C-2.44271087 5.65626525 -1.64826111 2.96687001 0 0 Z " fill="#A66B5F" transform="translate(123,425)"/>
<path d="M0 0 C3.96 1.98 3.96 1.98 8 4 C4 5 4 5 1 5 C0.67 3.35 0.34 1.7 0 0 Z " fill="#9E6253" transform="translate(713,155)"/>
<path d="M0 0 C-3.4352048 2.29013653 -4.985331 2.17842973 -9 2 C-9 1.34 -9 0.68 -9 0 C-5.52176885 -1.15941038 -3.54104422 -0.70820884 0 0 Z " fill="#AA6658" transform="translate(624,117)"/>
<path d="M0 0 C0.78375 0.04125 1.5675 0.0825 2.375 0.125 C0.725 1.775 -0.925 3.425 -2.625 5.125 C-3.285 4.135 -3.945 3.145 -4.625 2.125 C-2.625 0.125 -2.625 0.125 0 0 Z " fill="#A16356" transform="translate(730.625,856.875)"/>
<path d="M0 0 C0 0.99 0 1.98 0 3 C-0.99 3.66 -1.98 4.32 -3 5 C-4.32 4.34 -5.64 3.68 -7 3 C-4.69 2.01 -2.38 1.02 0 0 Z " fill="#A86A60" transform="translate(760,775)"/>
<path d="M0 0 C0 0.66 0 1.32 0 2 C0.66 2 1.32 2 2 2 C2 2.66 2 3.32 2 4 C0.02 4 -1.96 4 -4 4 C-4.33 3.34 -4.66 2.68 -5 2 C-2 0 -2 0 0 0 Z " fill="#FBF7F0" transform="translate(773,724)"/>
<path d="M0 0 C0.66 0 1.32 0 2 0 C1.37240135 2.92879371 0.41377341 5.36095629 -1 8 C-1.33 8 -1.66 8 -2 8 C-2.20086443 4.28400809 -2.1519437 3.22791555 0 0 Z " fill="#9F6256" transform="translate(877,695)"/>
<path d="M0 0 C0.99 0.33 1.98 0.66 3 1 C2.01 2.98 1.02 4.96 0 7 C-0.33 7 -0.66 7 -1 7 C-1.04254356 5.00045254 -1.04080783 2.99958364 -1 1 C-0.67 0.67 -0.34 0.34 0 0 Z " fill="#985A4E" transform="translate(890,665)"/>
<path d="M0 0 C0.66 0 1.32 0 2 0 C2.25 2.25 2.25 2.25 2 5 C0 7.3125 0 7.3125 -2 9 C-1.34 6.03 -0.68 3.06 0 0 Z " fill="#E8CFC6" transform="translate(909,614)"/>
<path d="M0 0 C0.66 0 1.32 0 2 0 C1.34 3.3 0.68 6.6 0 10 C-0.66 9.34 -1.32 8.68 -2 8 C-1.6875 6.125 -1.6875 6.125 -1 4 C-0.814375 3.2575 -0.62875 2.515 -0.4375 1.75 C-0.293125 1.1725 -0.14875 0.595 0 0 Z " fill="#EFD9D0" transform="translate(113,409)"/>
<path d="M0 0 C0.99 0.33 1.98 0.66 3 1 C3 1.66 3 2.32 3 3 C4.65 3 6.3 3 8 3 C8 3.33 8 3.66 8 4 C5.36 4 2.72 4 0 4 C-0.33 3.01 -0.66 2.02 -1 1 C-0.67 0.67 -0.34 0.34 0 0 Z " fill="#F1E3D9" transform="translate(324,282)"/>
<path d="M0 0 C-1.39332574 3.36720387 -2.9789286 4.9859524 -6 7 C-5.37162381 3.35541809 -4.14650034 0 0 0 Z " fill="#F4E1D6" transform="translate(237,207)"/>
<path d="M0 0 C0.66 0.33 1.32 0.66 2 1 C-0.64 2.65 -3.28 4.3 -6 6 C-6 5.01 -6 4.02 -6 3 C-4.03533587 1.93224776 -2.03144641 0.93446535 0 0 Z " fill="#F8E7DE" transform="translate(305,156)"/>
<path d="M0 0 C-0.33 0.66 -0.66 1.32 -1 2 C-3.64 1.67 -6.28 1.34 -9 1 C-5.64919071 -1.10976881 -3.77897651 -1.0497157 0 0 Z " fill="#A36C60" transform="translate(433,111)"/>
</svg>
